<svg xmlns="http://www.w3.org/2000/svg" width="14.698" height="15.027" viewBox="0 0 14.698 15.027">
  <defs>
    <style>
      .cls-1 {
        fill: #f2f2f2;
      }
    </style>
  </defs>
  <path id="cart-icon" class="cls-1" d="M6.861,18.877a1.281,1.281,0,0,1-.952-.4,1.327,1.327,0,0,1-.392-.961,1.275,1.275,0,0,1,.392-.933,1.352,1.352,0,0,1,1.9,0,1.344,1.344,0,0,1-.952,2.3Zm7.467,0a1.281,1.281,0,0,1-.952-.4,1.327,1.327,0,0,1-.392-.961,1.275,1.275,0,0,1,.392-.933,1.346,1.346,0,1,1,.952,2.3ZM5.984,6.557l1.96,4.088H13.32l2.24-4.088ZM5.368,5.325H16.232a.8.8,0,0,1,.737.448.873.873,0,0,1,.009.9l-2.445,4.405a1.913,1.913,0,0,1-.56.579,1.317,1.317,0,0,1-.747.224H7.608L6.6,13.762h9.128v1.232H6.675A1.292,1.292,0,0,1,5.5,14.444a1.118,1.118,0,0,1,.019-1.223l1.176-2.184L3.875,5.082H2.4V3.85H4.677Zm2.576,5.32h0Z" transform="translate(-2.4 -3.85)"/>
</svg>
