<?xml version="1.0" encoding="UTF-8"?>
<svg id="Layer_2" data-name="Layer 2" xmlns="http://www.w3.org/2000/svg" viewBox="0 0 593.19 50">
  <defs>
    <style>
      .cls-1 {
        fill: #242622;
      }
    </style>
  </defs>
  <g id="Layer_1-2" data-name="Layer 1">
    <g>
      <g>
        <path class="cls-1" d="M264.06,24.84c0-16.03,9.52-24.84,24.13-24.84,12.78,0,20.48,6.51,21.75,18.89l-13.65,2.54c-.95-6.03-3.17-9.05-8.57-9.05-6.91,0-9.44,5.71-9.44,12.46,0,8.09,2.62,13.02,9.37,13.02,5.71,0,7.62-3.1,8.89-9.21l13.49,2.22c-1.35,12.38-9.37,19.13-22.22,19.13-14.84,0-23.73-9.21-23.73-25.16Z"/>
        <path class="cls-1" d="M313.5,24.84c0-15.72,9.52-24.84,24.37-24.84s24.36,9.13,24.36,24.84-8.81,25.16-24.36,25.16-24.37-9.44-24.37-25.16Zm34.52-.08c0-7.62-2.78-12.38-10.16-12.38s-10.16,4.84-10.16,12.38c0,8.26,2.78,13.1,10.08,13.1s10.24-4.76,10.24-13.1Z"/>
        <path class="cls-1" d="M386.68,34.13h-5.24v14.68h-14.29V1.19h21.9c12.54,0,19.52,5.32,19.52,16.75,0,6.98-3.01,11.51-8.09,13.97l10.87,16.03v.87h-16.59l-8.1-14.68Zm-5.24-21.03v10.63h6.82c4.68,0,6.19-1.67,6.19-5.32,0-3.89-1.98-5.32-6.43-5.32h-6.59Z"/>
        <path class="cls-1" d="M433.98,34.13h-5.24v14.68h-14.29V1.19h21.9c12.54,0,19.52,5.32,19.52,16.75,0,6.98-3.01,11.51-8.09,13.97l10.87,16.03v.87h-16.59l-8.1-14.68Zm-5.24-21.03v10.63h6.82c4.68,0,6.19-1.67,6.19-5.32,0-3.89-1.98-5.32-6.43-5.32h-6.59Z"/>
        <path class="cls-1" d="M490.65,28.89V1.19h14.29V30.08c0,12.7-7.78,19.84-21.98,19.84s-21.99-7.14-21.99-19.84V1.19h14.29V28.89c0,5.4,1.67,8.49,7.7,8.49s7.7-3.1,7.7-8.49Z"/>
        <path class="cls-1" d="M525.65,36.98v11.83h-14.29V1.19h20.79c13.57,0,19.92,6.27,19.92,18.02,0,9.6-6.91,17.78-19.37,17.78h-7.06Zm0-23.81v12.22h5.48c5,0,6.82-1.98,6.82-6.11s-1.82-6.11-6.98-6.11h-5.32Z"/>
        <path class="cls-1" d="M553.82,1.19h39.37V14.29h-12.54V48.81h-14.29V14.29h-12.54V1.19Z"/>
      </g>
      <g>
        <path class="cls-1" d="M146.64,17.42c-17.14-9.16-30.95-30-49.76-6.93l39.5,39.5L174.08,12.32c.47-.45,1.36-1.37,1.81-1.83-11.88-13.84-19.66,.44-29.25,6.94Zm-10.25,28.05L101.42,10.5c16.89-17.24,26.64,1.7,41.89,9.03,.22,.1,.45,.21,.67,.31,1.03,.46,2.06,.86,3.09,1.2,.2,.06,.4,.13,.61,.19,.2,.06,.41,.12,.62,.17,2.15,.58,4.35,.85,6.67,.77,.25-.01,.5-.03,.77-.04,1.54-.11,3.13-.37,4.81-.81l-24.16,24.15Z"/>
        <g>
          <path class="cls-1" d="M14,39.49l-6.81,10.51H0l12-12c.64,.54,1.3,1.03,2,1.49Z"/>
          <path class="cls-1" d="M16.12,40.69c1.18,.58,2.42,1.04,3.72,1.4l-2.11,7.91h-6.17l4.56-9.31Z"/>
          <path class="cls-1" d="M26.19,42.75l.39,7.25h-5.42l1.06-7.43c1.34,.19,2.67,.24,3.97,.18Z"/>
          <path class="cls-1" d="M32.44,41.42l3.3,8.58h-5.81l-1.31-7.52c1.31-.23,2.59-.59,3.82-1.06Z"/>
          <path class="cls-1" d="M37.97,38.22l9.55,11.78h-7.79l-5.07-9.59c1.17-.62,2.28-1.35,3.31-2.19Z"/>
          <path class="cls-1" d="M43.16,12.81c-.62-1.17-1.35-2.28-2.19-3.3L52.71,0l5.07,5.07-14.62,7.74Z"/>
          <path class="cls-1" d="M44.17,15.03l17.03-6.54,6.47,6.47-22.43,3.91c-.23-1.32-.58-2.6-1.06-3.83Z"/>
          <path class="cls-1" d="M42.24,33.47l25.48,16.53h-14.11l-13.85-13.42c.93-.95,1.75-1.99,2.48-3.1Z"/>
          <path class="cls-1" d="M45.5,21.28l27.06-1.43,10.82,10.82-38.05-5.43c.19-1.34,.24-2.67,.18-3.97Z"/>
          <path class="cls-1" d="M102.71,50h-21.22L43.45,31.35c.57-1.18,1.04-2.42,1.39-3.72l48.47,12.97,9.4,9.4Z"/>
        </g>
        <g>
          <path class="cls-1" d="M228.56,8.5c-.9,.03-1.74-.07-2.57-.3,.81,.21,1.66,.33,2.57,.3Z"/>
          <polygon class="cls-1" points="246.4 2.18 244.22 0 221.4 22.82 198.58 0 196.4 2.18 219.22 25 196.4 47.82 198.58 50 221.4 27.18 244.22 50 246.4 47.82 223.58 25 246.4 2.18"/>
        </g>
      </g>
    </g>
  </g>
</svg>