<?xml version="1.0" encoding="UTF-8"?>
<svg id="Layer_2" data-name="Layer 2" xmlns="http://www.w3.org/2000/svg" viewBox="0 0 164 204.85">
  <defs>
    <style>
      .cls-1 {
        fill: #242622;
      }
    </style>
  </defs>
  <g id="Layer_1-2" data-name="Layer 1">
    <g>
      <g>
        <g>
          <path class="cls-1" d="M102.96,25.01c-2.63,.09-5.1-.21-7.53-.87,2.38,.63,4.87,.95,7.53,.87Z"/>
          <polygon class="cls-1" points="155.21 6.5 148.83 .11 82 66.94 15.17 .11 8.79 6.5 75.61 73.32 8.79 140.15 15.17 146.54 82 79.71 148.83 146.54 155.21 140.15 88.39 73.32 155.21 6.5"/>
          <path class="cls-1" d="M93.57,19.65c-19.34-10.34-34.91-33.85-56.13-7.81l44.56,44.56L124.51,13.89c.53-.51,1.53-1.54,2.05-2.06-13.41-15.61-22.18,.5-32.99,7.82Zm-11.57,31.64L42.55,11.84c19.05-19.45,30.05,1.92,47.25,10.18,.25,.12,.5,.24,.75,.35,1.17,.52,2.32,.98,3.49,1.35,.22,.07,.46,.14,.69,.21,.23,.07,.46,.14,.7,.2,2.42,.66,4.9,.96,7.53,.87,.28-.01,.57-.03,.86-.05,1.73-.12,3.53-.42,5.43-.91l-27.25,27.25Z"/>
        </g>
        <path class="cls-1" d="M44.67,136.04l-6.81,10.5h-7.18l11.99-11.99c.63,.54,1.3,1.03,2,1.49Z"/>
        <path class="cls-1" d="M46.79,137.23c1.18,.58,2.41,1.04,3.72,1.39l-2.11,7.91h-6.16l4.56-9.3Z"/>
        <path class="cls-1" d="M56.86,139.29l.39,7.24h-5.41l1.06-7.42c1.34,.19,2.66,.24,3.96,.18Z"/>
        <path class="cls-1" d="M63.1,137.96l3.3,8.58h-5.81l-1.31-7.51c1.31-.23,2.59-.59,3.82-1.06Z"/>
        <path class="cls-1" d="M68.63,134.77l9.54,11.77h-7.78l-5.07-9.58c1.17-.62,2.28-1.35,3.31-2.19Z"/>
        <path class="cls-1" d="M73.81,109.38c-.62-1.17-1.35-2.28-2.19-3.3l11.73-9.5,5.07,5.07-14.61,7.73Z"/>
        <path class="cls-1" d="M74.82,111.59l17.01-6.54,6.46,6.46-22.42,3.9c-.23-1.32-.58-2.6-1.06-3.83Z"/>
        <path class="cls-1" d="M72.89,130.02l25.47,16.52h-14.1l-13.84-13.41c.93-.95,1.75-1.99,2.48-3.1Z"/>
        <path class="cls-1" d="M76.15,117.84l27.04-1.43,10.81,10.81-38.03-5.42c.19-1.34,.24-2.66,.18-3.96Z"/>
        <path class="cls-1" d="M133.32,146.54h-21.21l-38-18.64c.57-1.18,1.04-2.41,1.38-3.72l48.43,12.96,9.4,9.4Z"/>
      </g>
      <g>
        <path class="cls-1" d="M0,170.03c0-7.99,4.75-12.38,12.02-12.38,6.37,0,10.2,3.24,10.84,9.41l-6.8,1.27c-.47-3.01-1.58-4.51-4.27-4.51-3.44,0-4.71,2.85-4.71,6.21,0,4.03,1.3,6.49,4.67,6.49,2.85,0,3.8-1.54,4.43-4.59l6.72,1.11c-.67,6.17-4.67,9.53-11.07,9.53-7.4,0-11.82-4.59-11.82-12.54Z"/>
        <path class="cls-1" d="M24.64,170.03c0-7.83,4.75-12.38,12.14-12.38s12.14,4.55,12.14,12.38-4.39,12.54-12.14,12.54-12.14-4.71-12.14-12.54Zm17.2-.04c0-3.8-1.38-6.17-5.06-6.17s-5.06,2.41-5.06,6.17c0,4.11,1.38,6.53,5.02,6.53s5.1-2.37,5.1-6.53Z"/>
        <path class="cls-1" d="M61.1,174.66h-2.61v7.32h-7.12v-23.73h10.91c6.25,0,9.73,2.65,9.73,8.34,0,3.48-1.5,5.73-4.03,6.96l5.42,7.99v.43h-8.26l-4.03-7.32Zm-2.61-10.48v5.3h3.4c2.33,0,3.08-.83,3.08-2.65,0-1.94-.99-2.65-3.2-2.65h-3.28Z"/>
        <path class="cls-1" d="M84.67,174.66h-2.61v7.32h-7.12v-23.73h10.91c6.25,0,9.73,2.65,9.73,8.34,0,3.48-1.5,5.73-4.03,6.96l5.42,7.99v.43h-8.26l-4.03-7.32Zm-2.61-10.48v5.3h3.4c2.33,0,3.08-.83,3.08-2.65,0-1.94-.99-2.65-3.2-2.65h-3.28Z"/>
        <path class="cls-1" d="M112.91,172.05v-13.8h7.12v14.39c0,6.33-3.88,9.89-10.95,9.89s-10.95-3.56-10.95-9.89v-14.39h7.12v13.8c0,2.69,.83,4.23,3.84,4.23s3.84-1.54,3.84-4.23Z"/>
        <path class="cls-1" d="M130.35,176.08v5.89h-7.12v-23.73h10.36c6.76,0,9.93,3.12,9.93,8.98,0,4.79-3.44,8.86-9.65,8.86h-3.52Zm0-11.86v6.09h2.73c2.49,0,3.4-.99,3.4-3.05s-.91-3.04-3.48-3.04h-2.65Z"/>
        <path class="cls-1" d="M144.39,158.25h19.62v6.53h-6.25v17.2h-7.12v-17.2h-6.25v-6.53Z"/>
      </g>
      <g>
        <path class="cls-1" d="M117.8,73.12c0-14.69,8.73-22.76,22.11-22.76,11.71,0,18.76,5.96,19.92,17.31l-12.51,2.33c-.87-5.53-2.91-8.29-7.85-8.29-6.33,0-8.65,5.24-8.65,11.42,0,7.42,2.4,11.93,8.58,11.93,5.24,0,6.98-2.84,8.14-8.43l12.36,2.04c-1.24,11.34-8.58,17.52-20.36,17.52-13.6,0-21.74-8.44-21.74-23.05Z"/>
        <path class="cls-1" d="M4.1,73.12c0-14.69,8.73-22.76,22.11-22.76,11.71,0,18.76,5.96,19.92,17.31l-12.51,2.33c-.87-5.53-2.91-8.29-7.85-8.29-6.33,0-8.65,5.24-8.65,11.42,0,7.42,2.4,11.93,8.58,11.93,5.24,0,6.98-2.84,8.14-8.43l12.36,2.04c-1.24,11.34-8.58,17.52-20.36,17.52-13.6,0-21.74-8.44-21.74-23.05Z"/>
      </g>
      <g>
        <path class="cls-1" d="M37.95,198.33c0-3.9,2.15-6.47,5.87-6.47,3.13,0,5.05,1.82,5.53,4.61l-1.09,.25c-.5-2.42-1.94-3.8-4.43-3.8-3.19,0-4.74,2.13-4.74,5.41s1.54,5.45,4.7,5.45c2.65,0,4.05-1.42,4.53-3.9l1.11,.23c-.48,2.86-2.38,4.74-5.66,4.74-3.78,0-5.82-2.61-5.82-6.51Z"/>
        <path class="cls-1" d="M55.1,198.33c0-3.8,2.19-6.47,6.12-6.47s6.14,2.67,6.14,6.47-2.17,6.51-6.14,6.51-6.12-2.71-6.12-6.51Zm11.09,0c0-3.19-1.63-5.41-4.97-5.41s-4.95,2.21-4.95,5.41,1.59,5.45,4.95,5.45,4.97-2.25,4.97-5.45Z"/>
        <path class="cls-1" d="M75.06,199.13v5.49h-1.17v-12.53h7.85v1.09h-6.68v4.89h5.89v1.06h-5.89Z"/>
        <path class="cls-1" d="M89.46,199.13v5.49h-1.17v-12.53h7.85v1.09h-6.68v4.89h5.89v1.06h-5.89Z"/>
        <path class="cls-1" d="M102.69,192.09h8.2v1.06h-7.04v4.53h6.24v1.06h-6.24v4.8h7.01v1.07h-8.18v-12.53Z"/>
        <path class="cls-1" d="M117.85,192.09h8.2v1.06h-7.04v4.53h6.24v1.06h-6.24v4.8h7.01v1.07h-8.18v-12.53Z"/>
      </g>
    </g>
  </g>
</svg>