<svg xmlns="http://www.w3.org/2000/svg" width="644.021" height="908.245" viewBox="0 0 644.021 908.245">
  <g id="Group_81" data-name="Group 81" transform="translate(-661.159 -18.089)">
    <g id="Path_110" data-name="Path 110" transform="translate(105.886 2.685)" fill="none" stroke-linecap="round" stroke-linejoin="round">
      <path d="M841.237,22.355c2.506,13.421,11.365,30.96,26.773,31.5,1.107-.046,2.842,2.052,3.37,3.5,3.373,8.077,26.381,6.815,36.032,15.221,9.315,10.2,5.546,14.229,21.653,14.782,9.449,12,15.284,28.37,18.194,43.38l-8.938-2.936c5.039,12.733,13.835,23,20.82,34.669,1.775,26.583-11.357,42.978,26.128,50.857,9.694-.823,10.781,27.87,18.675,14-.808-15.045-.142-31.667-8.287-44.866-3.3-11.978,16.062-3.516,14.954,5.178,2.237,7.873,2.209,7.865,10.036,6.4,10.35,4.758,8.3,39.944,13.534,52.626,2.754,10.837,2.724,26.913,17.244,27.822,22.659,2.251,42.983,12.8,64.864,18.132,30.5-1,46.52-55.211,81.006-19.28-11.2,22.978-6.954,64.916-33.146,75.749-13.846,8.358,4.145,35.446-13.3,41.549-3.31-29.357-47.042-10.483-56.15,6.445-9.567,13.1,12.5,20.37,3.531,34.27A260.173,260.173,0,0,1,1056.5,502.8c-10.1,17.581-51.682,82.009-71.114,55.2-.813-14.1-17.135.371-17.826-14.1-3.634,1.517-7.29,1.759-11.137,2.049,32.048-57.274,60.621-92.57-18.445-124.4-11.19-9.878-50.341-16.237-35.059-36.912,9.807-15.642,31-12.063,41.4-24.937,10.667-28.146,16.82-60.994,18.669-90.454-5.484-12.074-5.417-25.389-12.793-36.559-3.635-6.286-2.575-8.494,3.743-12.218,2.451-1.444,2.681-2.916.365-4.645-19.727-6.795-23.382-26.54-34.33-40.684,6.215-3.455,8.373-1.9,16.33,10.239,9.824-10.166-11.541-19.04-20.083-15.151-3.339,1.154-6.069.623-6.477-2.966-4.446-20.174-21.735-34.08-33.183-50.463-34.029-30.319-14.348-37.887-32.553-64.92C834.268,39.235,807.16,19.039,841.237,22.355Z" stroke="none"/>
      <path d="M 834.6346435546875 21.9921875 C 811.0869140625 21.9921875 834.9910888671875 40.17279052734375 844.01416015625 51.88519287109375 C 862.21923828125 78.91864013671875 842.538330078125 86.4866943359375 876.567138671875 116.8057250976562 C 888.01513671875 133.1889953613281 905.304443359375 147.0949401855469 909.75048828125 167.2688598632812 C 910.158447265625 170.8573913574219 912.888916015625 171.3891906738281 916.2275390625 170.23486328125 C 924.76953125 166.3462829589844 946.1346435546875 175.2195434570312 936.310791015625 185.3860778808594 C 928.353271484375 173.2423095703125 926.195556640625 171.6920471191406 919.98046875 175.1466369628906 C 930.928466796875 189.2910766601562 934.583251953125 209.0360717773438 954.310302734375 215.8308410644531 C 956.626953125 217.5597839355469 956.39697265625 219.0320739746094 953.94580078125 220.47607421875 C 947.6279296875 224.2005004882812 946.568359375 226.4079895019531 950.203369140625 232.6944274902344 C 957.57958984375 243.864501953125 957.512939453125 257.1791381835938 962.996337890625 269.2533569335938 C 961.14794921875 298.7128601074219 954.994384765625 331.5606384277344 944.32763671875 359.7068481445312 C 933.927490234375 372.5809936523438 912.72998046875 369.002197265625 902.923095703125 384.6437072753906 C 887.64111328125 405.31787109375 926.791748046875 411.6771240234375 937.981689453125 421.5553588867188 C 1017.048034667969 453.3863525390625 988.4745483398438 488.6817932128906 956.426513671875 545.9562377929688 C 960.2734375 545.6661987304688 963.93017578125 545.4246215820312 967.56396484375 543.9076538085938 C 967.939208984375 551.7735595703125 972.932861328125 551.086669921875 977.544677734375 551.0866088867188 C 981.4158935546875 551.0866088867188 985.018310546875 551.5711059570312 985.3894653320312 558.005615234375 C 988.6617431640625 562.5194091796875 992.55859375 564.445068359375 996.8310546875 564.445068359375 C 1017.930053710938 564.445068359375 1048.105346679688 517.4213256835938 1056.50341796875 502.8011474609375 C 1074.10888671875 481.3155517578125 1087.920166015625 457.8345031738281 1098.22412109375 431.3475036621094 C 1107.191650390625 417.44677734375 1085.12646484375 410.1734313964844 1094.693603515625 397.0772705078125 C 1103.8017578125 380.1490478515625 1147.533203125 361.2752380371094 1150.84326171875 390.6319274902344 C 1168.29345703125 384.5294189453125 1150.30224609375 357.44140625 1164.148193359375 349.0832824707031 C 1190.340087890625 338.2494201660156 1186.092041015625 296.3115844726562 1197.2939453125 273.3338623046875 C 1188.7294921875 264.4102783203125 1181.305419921875 261.0467224121094 1174.514282226562 261.0471801757812 C 1153.960571289062 261.0486145019531 1139.215576171875 291.8642578125 1116.288330078125 292.6136474609375 C 1094.406982421875 287.2861328125 1074.083740234375 276.7320556640625 1051.42431640625 274.4815673828125 C 1036.904052734375 273.5724182128906 1036.933837890625 257.4971313476562 1034.18017578125 246.6599426269531 C 1028.951416015625 233.9779357910156 1030.996826171875 198.7917175292969 1020.646667480469 194.033935546875 C 1012.820190429688 195.4961547851562 1012.84814453125 195.5045471191406 1010.610900878906 187.6315612792969 C 1011.718627929688 178.9373474121094 992.3594970703125 170.4750366210938 995.6568603515625 182.4532165527344 C 1003.801330566406 195.6519165039062 1003.135437011719 212.2736511230469 1003.943786621094 227.3189392089844 C 996.1612548828125 240.9950561523438 994.9957885742188 213.3030090332031 985.6759033203125 213.3045043945312 C 985.5420532226562 213.3045349121094 985.40576171875 213.3102722167969 985.2684326171875 213.3219299316406 C 947.78369140625 205.4424133300781 960.916259765625 189.0475769042969 959.140869140625 162.4646301269531 C 952.15576171875 150.7911376953125 943.3603515625 140.5286560058594 938.3212890625 127.7952270507812 L 947.259033203125 130.7314147949219 C 944.34912109375 115.7210083007812 938.514892578125 99.35092163085938 929.0654296875 87.3511962890625 C 912.958740234375 86.798095703125 916.727783203125 82.76727294921875 907.41259765625 72.5693359375 C 897.760986328125 64.1632080078125 874.75341796875 65.425048828125 871.38037109375 57.34857177734375 C 870.8577880859375 55.920166015625 869.1552734375 53.851806640625 868.046630859375 53.85186767578125 C 868.034423828125 53.85186767578125 868.022216796875 53.85211181640625 868.01025390625 53.8526611328125 C 852.602294921875 53.3143310546875 843.742431640625 35.77520751953125 841.23681640625 22.35455322265625 C 838.7098388671875 22.10870361328125 836.520751953125 21.9921875 834.6346435546875 21.9921875 M 834.6346435546875 19.9921875 C 836.608642578125 19.9921875 838.89501953125 20.1173095703125 841.430419921875 20.364013671875 C 842.3167724609375 20.4501953125 843.0394287109375 21.112060546875 843.2027587890625 21.98748779296875 C 844.557861328125 29.2454833984375 847.5467529296875 36.45184326171875 851.403076171875 41.7587890625 C 853.619873046875 44.80950927734375 856.09228515625 47.21319580078125 858.751708984375 48.90325927734375 C 861.6361083984375 50.736328125 864.7564697265625 51.72821044921875 868.027099609375 51.8519287109375 C 868.0335693359375 51.85186767578125 868.0401611328125 51.85186767578125 868.046630859375 51.85186767578125 C 869.1590576171875 51.851806640625 870.2928466796875 52.481201171875 871.4161376953125 53.72259521484375 C 872.2081298828125 54.59771728515625 872.8865966796875 55.67291259765625 873.2396240234375 56.6102294921875 C 873.82470703125 57.96923828125 875.439453125 59.15643310546875 878.1741943359375 60.23870849609375 C 881.0030517578125 61.35809326171875 884.622802734375 62.2109375 888.455078125 63.11376953125 C 892.0718994140625 63.9659423828125 895.81201171875 64.84698486328125 899.2930908203125 66.044189453125 C 903.3770751953125 67.44873046875 906.462646484375 69.08978271484375 908.7261962890625 71.06121826171875 C 908.7835693359375 71.11114501953125 908.8380126953125 71.16436767578125 908.8892822265625 71.22052001953125 C 911.694091796875 74.2911376953125 913.3526611328125 76.81573486328125 914.685302734375 78.84429931640625 C 916.230224609375 81.19580078125 917.16259765625 82.615234375 918.907958984375 83.57037353515625 C 920.837158203125 84.62615966796875 923.9910888671875 85.17578125 929.1341552734375 85.35235595703125 C 929.72265625 85.37255859375 930.2723388671875 85.65118408203125 930.63671875 86.11383056640625 C 935.2032470703125 91.91278076171875 939.1845703125 98.99578857421875 942.47021484375 107.1660766601562 C 945.3626708984375 114.3590698242188 947.634521484375 122.1595764160156 949.222412109375 130.3507995605469 C 949.357421875 131.0471496582031 949.113525390625 131.7628479003906 948.5814208984375 132.2318420410156 C 948.0494384765625 132.7006530761719 947.308837890625 132.8529663085938 946.634765625 132.6315002441406 L 941.932861328125 131.0868225097656 C 945.0465087890625 137.6611633300781 949.0848388671875 143.6139526367188 953.319091796875 149.8556518554688 C 955.8516845703125 153.5888671875 958.470458984375 157.44921875 960.8570556640625 161.4377136230469 C 961.0196533203125 161.7092895507812 961.1153564453125 162.0155639648438 961.136474609375 162.3313598632812 C 961.5692138671875 168.8123474121094 961.13427734375 174.7122802734375 960.75048828125 179.917724609375 C 960.1500244140625 188.0637817382812 959.6756591796875 194.4980773925781 962.5806884765625 199.5258483886719 C 965.692626953125 204.911376953125 972.9522705078125 208.6585693359375 985.4185791015625 211.3094787597656 C 985.5042724609375 211.3062133789062 985.58984375 211.3045349121094 985.6748046875 211.3045043945312 C 987.0809326171875 211.3042907714844 988.4257202148438 211.7447204589844 989.67236328125 212.6136474609375 C 990.6719360351562 213.3102722167969 991.6024780273438 214.27099609375 992.51708984375 215.5507202148438 C 994.0682983398438 217.7210083007812 995.2843627929688 220.3961486816406 996.4603881835938 222.983154296875 C 997.23291015625 224.6824951171875 997.9625244140625 226.2875671386719 998.6807861328125 227.4858703613281 C 999.4246826171875 228.7268676757812 999.86376953125 229.0326843261719 999.9930419921875 229.1012268066406 C 1000.153930664062 229.03125 1000.807434082031 228.6524963378906 1001.915161132812 226.8246765136719 C 1001.811462402344 224.7942810058594 1001.730773925781 222.7144775390625 1001.652587890625 220.6970825195312 C 1001.149719238281 207.7297058105469 1000.629821777344 194.3208618164062 993.954833984375 183.5035095214844 C 993.8551635742188 183.3419189453125 993.779052734375 183.1670837402344 993.7285766601562 182.9840698242188 C 992.9656982421875 180.2125854492188 993.1734619140625 178.0266418457031 994.3463134765625 176.487060546875 C 995.029541015625 175.5901489257812 996.3554077148438 174.5208435058594 998.7916259765625 174.5203552246094 C 1000.543762207031 174.5199890136719 1002.547485351562 175.0777893066406 1004.586120605469 176.1332702636719 C 1006.550048828125 177.1500854492188 1008.390930175781 178.5721435546875 1009.769714355469 180.1375122070312 C 1011.826721191406 182.4727172851562 1012.812438964844 184.9909362792969 1012.638000488281 187.4484252929688 C 1013.293823242188 189.7546691894531 1013.778686523438 191.4239196777344 1014.277526855469 192.2502136230469 C 1014.505432128906 192.6277160644531 1014.599731445312 192.783935546875 1015.429931640625 192.783935546875 C 1016.447143554688 192.783935546875 1018.037719726562 192.4867858886719 1020.239196777344 192.075439453125 L 1020.279357910156 192.0679321289062 C 1020.685974121094 191.9919128417969 1021.106140136719 192.0439147949219 1021.482055664062 192.2167053222656 C 1023.394226074219 193.095703125 1025.04296875 194.792724609375 1026.382080078125 197.2605590820312 C 1027.47900390625 199.2819213867188 1028.402954101562 201.8444213867188 1029.20654296875 205.0945129394531 C 1030.6484375 210.9263610839844 1031.4658203125 218.0501403808594 1032.25634765625 224.9394226074219 C 1033.2216796875 233.352783203125 1034.133544921875 241.299560546875 1036.029174804688 245.8975830078125 C 1036.065307617188 245.9852905273438 1036.09521484375 246.075439453125 1036.11865234375 246.1674194335938 C 1036.6240234375 248.1570739746094 1037.025390625 250.2488708496094 1037.449951171875 252.4635009765625 C 1038.380004882812 257.3131408691406 1039.341796875 262.3278503417969 1041.443359375 266.1278686523438 C 1043.680908203125 270.1737060546875 1046.89208984375 272.19384765625 1051.54931640625 272.4855041503906 C 1051.573486328125 272.4869995117188 1051.597900390625 272.4889221191406 1051.621948242188 272.4913635253906 C 1065.733642578125 273.8929138183594 1079.074951171875 278.5033569335938 1091.977172851562 282.9620666503906 C 1099.951171875 285.7177124023438 1108.194091796875 288.5662231445312 1116.491455078125 290.6044006347656 C 1127.3388671875 290.1263427734375 1136.556396484375 282.2436218261719 1145.47265625 274.6184387207031 C 1149.8994140625 270.8327026367188 1154.476806640625 266.9181518554688 1159.162353515625 264.0212707519531 C 1161.738037109375 262.4289245605469 1164.1474609375 261.2567138671875 1166.528686523438 260.4377746582031 C 1169.24853515625 259.5022277832031 1171.860595703125 259.04736328125 1174.51416015625 259.0472106933594 C 1182.480834960938 259.046630859375 1190.404052734375 263.266845703125 1198.73681640625 271.9490051269531 C 1199.3173828125 272.5538635253906 1199.459106445312 273.4566345214844 1199.091674804688 274.2102966308594 C 1195.349243164062 281.8868408203125 1193.386474609375 291.7284851074219 1191.308349609375 302.1480102539062 C 1189.33447265625 312.0457153320312 1187.293090820312 322.2803649902344 1183.548828125 330.9507141113281 C 1181.48876953125 335.7207946777344 1179.109619140625 339.5945129394531 1176.275390625 342.7932739257812 C 1174.7177734375 344.5510559082031 1173.001953125 346.114013671875 1171.175170898438 347.4385681152344 C 1169.29541015625 348.8016052246094 1167.239135742188 349.9554748535156 1165.061157226562 350.8695068359375 C 1159.684814453125 354.2265014648438 1160.200073242188 361.494140625 1160.745849609375 369.1849975585938 C 1161.072265625 373.7854919433594 1161.409790039062 378.542724609375 1160.4296875 382.6351928710938 C 1159.865966796875 384.9890747070312 1158.93115234375 386.9120483398438 1157.57177734375 388.5142211914062 C 1156.06396484375 390.2912902832031 1154.022216796875 391.6389770507812 1151.50341796875 392.519775390625 C 1150.928955078125 392.720703125 1150.29443359375 392.649169921875 1149.779052734375 392.3252868652344 C 1149.263793945312 392.0014953613281 1148.924072265625 391.460693359375 1148.855834960938 390.8560180664062 C 1147.842041015625 381.8644409179688 1142.756469726562 377.3053588867188 1133.740234375 377.3053588867188 C 1127.34375 377.3053588867188 1119.394775390625 379.7410888671875 1111.931396484375 383.9879760742188 C 1104.780029296875 388.057373046875 1098.994384765625 393.3048706054688 1096.454833984375 398.0249328613281 C 1096.411376953125 398.1055908203125 1096.362548828125 398.1831359863281 1096.30859375 398.257080078125 C 1092.503662109375 403.4655151367188 1094.453857421875 407.2086486816406 1097.950927734375 412.8845825195312 C 1099.6142578125 415.5840759277344 1101.333984375 418.37548828125 1102.06201171875 421.5333557128906 C 1102.911376953125 425.2174072265625 1102.242309570312 428.7272644042969 1100.016235351562 432.2569580078125 C 1097.456787109375 438.822021484375 1094.6376953125 445.3065185546875 1091.635620117188 451.5335083007812 C 1088.615234375 457.798583984375 1085.3154296875 463.9979858398438 1081.828125 469.959716796875 C 1078.358154296875 475.891845703125 1074.59423828125 481.7734985351562 1070.640869140625 487.4412231445312 C 1066.745361328125 493.0263061523438 1062.545043945312 498.5768127441406 1058.155029296875 503.9410705566406 C 1056.819580078125 506.2596740722656 1053.34423828125 512.148193359375 1048.26416015625 519.7156372070312 C 1043.12890625 527.365478515625 1037.983642578125 534.3179931640625 1032.971435546875 540.380126953125 C 1026.619506835938 548.0625610351562 1020.609191894531 554.1402587890625 1015.107299804688 558.4444580078125 C 1011.904174804688 560.9502563476562 1008.820983886719 562.8912353515625 1005.943298339844 564.21337890625 C 1002.720153808594 565.6942138671875 999.654296875 566.445068359375 996.8310546875 566.445068359375 C 991.6595458984375 566.445068359375 987.2652587890625 564.0005493164062 983.7702026367188 559.1795043945312 C 983.5457153320312 558.8699340820312 983.414794921875 558.5025634765625 983.3927612304688 558.1207885742188 C 983.2005004882812 554.7872314453125 982.066162109375 554.0536499023438 981.6934814453125 553.8125610351562 C 980.7619018554688 553.2100830078125 979.3612060546875 553.086669921875 977.5445556640625 553.086669921875 C 977.213134765625 553.086669921875 976.868408203125 553.0904541015625 976.534912109375 553.0940551757812 C 976.1905517578125 553.0978393554688 975.8343505859375 553.101806640625 975.4805908203125 553.101806640625 C 973.4095458984375 553.101806640625 971.0347900390625 552.9921264648438 969.062255859375 551.6824951171875 C 967.439697265625 550.6053466796875 966.3912353515625 548.933837890625 965.8895263671875 546.6080322265625 C 962.859619140625 547.478271484375 959.828369140625 547.7061767578125 956.87646484375 547.927978515625 L 956.576904296875 547.9505615234375 C 955.841064453125 548.0059814453125 955.1368408203125 547.6529541015625 954.740478515625 547.031982421875 C 954.34423828125 546.4110107421875 954.3214111328125 545.6224365234375 954.68115234375 544.9795532226562 C 957.2274169921875 540.4291381835938 959.754150390625 536.012939453125 962.19775390625 531.7421264648438 C 978.775146484375 502.7684326171875 991.868896484375 479.88330078125 985.1585083007812 460.556640625 C 980.242431640625 446.397705078125 965.0142822265625 434.5942993164062 937.2347412109375 423.41064453125 C 937.023681640625 423.3256225585938 936.82861328125 423.2052917480469 936.6580810546875 423.0547180175781 C 933.595458984375 420.3511352539062 928.03515625 417.8160705566406 922.1484375 415.1321411132812 C 916.9697265625 412.7710571289062 911.6146240234375 410.32958984375 907.197509765625 407.447265625 C 904.732421875 405.8388061523438 902.802978515625 404.25390625 901.2991943359375 402.6021423339844 C 899.5311279296875 400.6600646972656 898.355712890625 398.5972900390625 897.805419921875 396.4710083007812 C 897.28466796875 394.458984375 897.3084716796875 392.35205078125 897.8763427734375 390.2085571289062 C 898.4468994140625 388.054443359375 899.5882568359375 385.80322265625 901.2691650390625 383.5167846679688 C 903.799560546875 379.505615234375 907.25537109375 376.3241271972656 911.8319091796875 373.7919921875 C 915.812744140625 371.5894775390625 920.1663818359375 370.1183471679688 924.3765869140625 368.6956481933594 C 931.4287109375 366.3126525878906 938.095703125 364.0595092773438 942.5731201171875 358.6921997070312 C 952.4295654296875 332.5733337402344 958.95458984375 300.976318359375 960.968994140625 269.619873046875 C 958.6983642578125 264.4815979003906 957.3720703125 259.1487426757812 956.0885009765625 253.9867858886719 C 954.29345703125 246.7682800292969 952.597900390625 239.9500732421875 948.534423828125 233.7965087890625 C 948.5125732421875 233.7634887695312 948.4918212890625 233.7298583984375 948.4720458984375 233.695556640625 C 947.4322509765625 231.8974304199219 946.785400390625 230.4635009765625 946.4365234375 229.1827697753906 C 946.0164794921875 227.6414184570312 946.019287109375 226.2709350585938 946.4447021484375 224.9928588867188 C 947.2752685546875 222.4977111816406 949.637939453125 220.6939392089844 952.93017578125 218.7531433105469 C 953.4383544921875 218.4537963867188 953.7034912109375 218.2261352539062 953.8358154296875 218.0891723632812 C 953.7496337890625 217.98193359375 953.5989990234375 217.8213500976562 953.341552734375 217.6109924316406 C 939.203857421875 212.6058959960938 932.98876953125 201.2564697265625 926.976318359375 190.2778625488281 C 924.3751220703125 185.5282897949219 921.685546875 180.6170043945312 918.39892578125 176.3707885742188 C 918.0419921875 175.9096984863281 917.904052734375 175.3157958984375 918.0213623046875 174.7445678710938 C 918.1385498046875 174.1733703613281 918.4991455078125 173.6817932128906 919.0087890625 173.3984985351562 C 921.1910400390625 172.1856079101562 922.814453125 171.6199645996094 924.3499755859375 171.5474853515625 C 923.3243408203125 171.3871765136719 922.295166015625 171.3008422851562 921.288330078125 171.3008422851562 C 919.6036376953125 171.3008422851562 918.14013671875 171.5616455078125 917.05615234375 172.0551452636719 C 916.9989013671875 172.0812072753906 916.9404296875 172.1044921875 916.8809814453125 172.1250610351562 C 915.620849609375 172.5606994628906 914.4478759765625 172.7816467285156 913.3944091796875 172.7816467285156 C 911.8905029296875 172.7816467285156 910.582275390625 172.3212280273438 909.61083984375 171.4500732421875 C 908.6004638671875 170.5437622070312 907.983642578125 169.2506713867188 907.7764892578125 167.6052551269531 C 904.7679443359375 154.0973205566406 895.52587890625 143.1752319335938 886.58740234375 132.6122131347656 C 882.64453125 127.95263671875 878.56884765625 123.1359558105469 875.0623779296875 118.1435546875 C 870.2320556640625 113.8279113769531 866.344482421875 109.8595275878906 863.18212890625 106.0164184570312 C 860.27734375 102.4864196777344 858.039306640625 99.12408447265625 856.34033203125 95.73715209960938 C 853.14990234375 89.37744140625 852.3800048828125 83.86065673828125 851.6353759765625 78.52557373046875 C 850.62060546875 71.25506591796875 849.5712890625 63.73748779296875 842.390869140625 53.05535888671875 C 840.42626953125 50.513427734375 837.7537841796875 47.6683349609375 834.925537109375 44.65740966796875 C 831.64697265625 41.1671142578125 828.2567138671875 37.5579833984375 825.8929443359375 34.2882080078125 C 823.9617919921875 31.61688232421875 821.560546875 27.6815185546875 822.996826171875 24.36175537109375 C 823.67041015625 22.8048095703125 825.065673828125 21.6544189453125 827.1435546875 20.94281005859375 C 829.0113525390625 20.30316162109375 831.461669921875 19.9921875 834.6346435546875 19.9921875 Z M 936.396240234375 181.893310546875 C 937.2119140625 180.183349609375 936.711669921875 179.0042724609375 936.510986328125 178.5311279296875 C 935.479736328125 176.1007385253906 932.117919921875 173.8097534179688 928.1591796875 172.4816284179688 C 930.685791015625 173.9178161621094 933.1192626953125 177.0143432617188 936.396240234375 181.893310546875 Z" stroke="none" fill="#fff"/>
    </g>
    <g id="Path_111" data-name="Path 111" transform="translate(0 192.223)" fill="none" stroke-linecap="round" stroke-linejoin="round">
      <path d="M685.617,675.055c-8.752,2.741-35.141,3.594-11.859-5.429,2.2-.7,3.986-1.836,2.622-4.4-2.17-36.2,38.791-62.266,56.092-92.045,9.572-16.248,25.107-20.035,40.518-27.253,17.417-11.823,33.959-24.452,48.413-39.8,54.777-38.8,53.87-50.591,75.3-108.173,28.8-11.149,21.849-39.942,29.267-62.8,10.731-10.617,26.108-32.29,42.867-21.176-10.479-.768-16.173,12.536-4.842,16.454,16.377,2.3,6.786,15.3,12.261,25.833,10.23,14.666,46.419-34.519,39.121,4.672,7.472.621,18.63-3.991,23.529.018-5.112,5.94-13.255,10.335-8.158,18.914,19.2,25.278-26.879,55.878-36.32,80.726-8.18,20.969-35.52,24.4-31.447,49.248-2.262,12.919,20.257,12.4,21.517,24.082-17.327,9.658-42.667-2.345-59.384,12.019-13.727,11.51-34.686,20.427-35.8,40.6-.969,26.394-22.984,52.787-21.335,76.889,8,5.857,2.058,9.683-3.941,13.84-20.209,9.113-27.284,31.084-43.548,44.208-18.457,11.3-50.673,15.625-68.3,2.721-2.971-4.736-7.211-6.79-12.781-6.4-5.6.388-10.1-1.85-13.7-6.1-12.361-17.98-21.421,5.735-43.786-2.5-3.951-.506-6.77-2.077-8.366-6.381C645.907,676.633,681.7,689.193,685.617,675.055Z" stroke="none"/>
      <path d="M 780.71923828125 732.1106567382812 C 794.9451293945312 732.1105346679688 809.9598999023438 727.9332275390625 820.49267578125 721.486083984375 C 836.7567138671875 708.3614501953125 843.8310546875 686.3909912109375 864.040283203125 677.27783203125 C 870.0401611328125 673.120849609375 875.9818115234375 669.2954711914062 867.981689453125 663.4381103515625 C 866.3319091796875 639.3360595703125 888.34765625 612.9437255859375 889.3162841796875 586.54931640625 C 890.4326171875 566.380126953125 911.3916015625 557.462646484375 925.11865234375 545.952880859375 C 935.1019287109375 537.3748779296875 948.156494140625 538.1995849609375 960.7467041015625 538.1995849609375 C 969.2396850585938 538.1995239257812 977.5230712890625 537.823974609375 984.5030517578125 533.9334716796875 C 983.242919921875 522.2548828125 960.723388671875 522.7698974609375 962.98583984375 509.8512268066406 C 958.912109375 485.0003967285156 986.2529296875 481.5723266601562 994.4324951171875 460.6033325195312 C 1003.873779296875 435.7560119628906 1049.956665039062 405.1554870605469 1030.7529296875 379.8776245117188 C 1025.655517578125 371.2992858886719 1033.798583984375 366.9041748046875 1038.910766601562 360.9638366699219 C 1034.329833984375 357.2146606445312 1024.2763671875 361.0041809082031 1016.880859375 361.004150390625 C 1016.367736816406 361.004150390625 1015.866394042969 360.98583984375 1015.381591796875 360.945556640625 C 1021.677917480469 327.1345825195312 995.6087646484375 359.0978393554688 981.7638549804688 359.0978393554688 C 979.5609741210938 359.0978393554688 977.664794921875 358.2870788574219 976.2606201171875 356.2738952636719 C 970.7857666015625 345.7397155761719 980.3758544921875 332.7362060546875 963.999267578125 330.441162109375 C 952.6686401367188 326.5230102539062 958.3626098632812 313.2186889648438 968.841552734375 313.9867248535156 C 952.0820922851562 302.8727416992188 936.7059936523438 324.5457763671875 925.9747314453125 335.1625061035156 C 918.5557861328125 358.0160522460938 925.506103515625 386.8097839355469 896.707275390625 397.9583435058594 C 875.2730712890625 455.5408935546875 876.1805419921875 467.3335571289062 821.403564453125 506.1315612792969 C 806.949462890625 521.4766845703125 790.4072265625 534.10546875 772.990478515625 545.9283447265625 C 757.5792236328125 553.146728515625 742.0438232421875 556.93408203125 732.4722900390625 573.1817626953125 C 715.171142578125 602.960693359375 674.2103271484375 629.0289306640625 676.380126953125 665.2266845703125 C 677.7446899414062 667.790283203125 675.957763671875 668.93115234375 673.758544921875 669.626708984375 C 650.4761962890625 678.6489868164062 676.8651733398438 677.796142578125 685.617431640625 675.0553588867188 C 681.7007446289062 689.1929931640625 645.9071044921875 676.6334228515625 673.559814453125 702.8238525390625 C 675.1561889648438 707.1278076171875 677.9747314453125 708.6981201171875 681.9259033203125 709.20458984375 C 697.810791015625 715.0540771484375 706.9829711914062 704.7863159179688 715.39404296875 704.7862548828125 C 718.8251342773438 704.7862548828125 722.1304931640625 706.4959716796875 725.7117919921875 711.705322265625 C 729.3106689453125 715.952880859375 733.8158569335938 718.1902465820312 739.4141845703125 717.802734375 C 744.9844360351562 717.4171142578125 749.224365234375 719.4703369140625 752.195556640625 724.2066650390625 C 759.7617797851562 729.7467651367188 770.0171508789062 732.1107177734375 780.71923828125 732.1106567382812 M 780.7192993164062 734.110595703125 C 768.6932373046875 734.1107177734375 758.4212646484375 731.2440185546875 751.0139770507812 725.8203125 C 750.8097534179688 725.6708374023438 750.6358032226562 725.48388671875 750.5013427734375 725.2694702148438 C 748.14208984375 721.5087280273438 745.0294799804688 719.757080078125 740.7056884765625 719.757080078125 C 740.331787109375 719.757080078125 739.9436645507812 719.7708129882812 739.55224609375 719.7979736328125 C 739.0932006835938 719.8297729492188 738.6318969726562 719.8458862304688 738.1812133789062 719.8458862304688 C 732.7445678710938 719.8460083007812 728.0357666015625 717.5421142578125 724.1858520507812 712.9982299804688 C 724.1424560546875 712.947021484375 724.1016845703125 712.8936767578125 724.0636596679688 712.8383178710938 C 720.3759765625 707.4741821289062 717.493408203125 706.7862548828125 715.39404296875 706.7862548828125 C 712.8814086914062 706.7862548828125 710.1166381835938 707.9168701171875 706.9154663085938 709.22607421875 C 702.5830078125 710.997802734375 697.6724243164062 713.0059814453125 691.5655517578125 713.0059814453125 C 688.1994018554688 713.0059814453125 684.8865966796875 712.4013671875 681.4452514648438 711.1581420898438 C 679.0686645507812 710.827880859375 677.238525390625 710.1614379882812 675.7009887695312 709.068359375 C 674.0211181640625 707.8742065429688 672.7606201171875 706.2017211914062 671.8571166992188 703.96484375 C 667.8018798828125 700.0992431640625 664.9974975585938 696.9541015625 663.2905883789062 694.358154296875 C 661.4403686523438 691.5442504882812 660.8040771484375 689.213134765625 661.3453369140625 687.2315063476562 C 661.8375244140625 685.4293823242188 663.2247924804688 684.0714721679688 665.5863037109375 683.0801391601562 C 667.337890625 682.3448486328125 669.4651489257812 681.8580322265625 671.7173461914062 681.3426513671875 C 674.4407958984375 680.7193603515625 677.2569580078125 680.074951171875 679.5265502929688 678.96484375 C 680.0713500976562 678.6983642578125 680.5612182617188 678.4163818359375 680.9986572265625 678.1161499023438 C 677.8494873046875 678.6174926757812 674.2572021484375 678.9271240234375 671.127685546875 678.92724609375 C 669.0476684570312 678.9273071289062 667.3411254882812 678.7883911132812 666.0553588867188 678.514404296875 C 665.2290649414062 678.3382568359375 664.5699462890625 678.106201171875 664.0403442382812 677.8048706054688 C 662.9213256835938 677.168212890625 662.5517578125 676.314453125 662.4387817382812 675.7103271484375 C 662.322021484375 675.0859985351562 662.3673706054688 674.1212158203125 663.2465209960938 673.0703735351562 C 663.7059326171875 672.521240234375 664.3683471679688 671.9744262695312 665.2715454101562 671.3988037109375 C 666.9637451171875 670.3203735351562 669.50341796875 669.1307373046875 673.035888671875 667.7618408203125 C 673.0752563476562 667.74658203125 673.1151733398438 667.7325439453125 673.1554565429688 667.7198486328125 C 674.5441284179688 667.2805786132812 674.8218383789062 666.9140625 674.8555297851562 666.861572265625 C 674.857177734375 666.8217163085938 674.8516235351562 666.6116943359375 674.6146240234375 666.1663818359375 C 674.4796752929688 665.9127807617188 674.40087890625 665.6331176757812 674.3837280273438 665.3463134765625 C 672.9037475585938 640.6573486328125 690.5863037109375 620.779541015625 707.6865234375 601.5562744140625 C 716.5630493164062 591.5776977539062 724.9473266601562 582.152587890625 730.742919921875 572.1770629882812 C 730.7449951171875 572.173583984375 730.7470092773438 572.1701049804688 730.7490234375 572.1666259765625 C 732.7044677734375 568.8472900390625 734.933349609375 565.9439697265625 737.5629272460938 563.2908325195312 C 739.9111328125 560.9216918945312 742.5299682617188 558.8056640625 745.5692138671875 556.8218994140625 C 751.1575927734375 553.1742553710938 757.1625366210938 550.6174926757812 763.5201416015625 547.9105834960938 C 766.2996215820312 546.7271728515625 769.1724243164062 545.5040283203125 771.998779296875 544.1842041015625 C 792.7601928710938 530.081787109375 807.5538330078125 517.9180908203125 819.9476928710938 504.7602233886719 C 820.0387573242188 504.6635437011719 820.1392211914062 504.5762329101562 820.24755859375 504.49951171875 C 868.3557739257812 470.4249572753906 872.987548828125 457.5901794433594 888.334716796875 415.0632629394531 C 890.249755859375 409.7566223144531 892.4203491210938 403.741943359375 894.8329467773438 397.2606201171875 C 895.032470703125 396.724609375 895.451904296875 396.2996520996094 895.9852905273438 396.0932312011719 C 915.4863891601562 388.5439453125 917.67626953125 372.3993835449219 919.9946899414062 355.306884765625 C 920.93408203125 348.3814392089844 921.9054565429688 341.22021484375 924.0724487304688 334.5449523925781 C 924.1710815429688 334.2411804199219 924.341064453125 333.9653930664062 924.568115234375 333.74072265625 C 926.1525268554688 332.1732177734375 927.854248046875 330.3450012207031 929.6559448242188 328.4094543457031 C 937.7465209960938 319.7175598144531 947.8156127929688 308.9002075195312 959.2251586914062 308.9002075195312 C 962.9177856445312 308.9002075195312 966.5250244140625 310.05078125 969.9468994140625 312.3198852539062 C 970.7047729492188 312.822509765625 971.0281982421875 313.7731628417969 970.7340698242188 314.6336669921875 C 970.4398193359375 315.4941711425781 969.60205078125 316.0480041503906 968.6951904296875 315.9813232421875 C 968.4547729492188 315.9637145996094 968.2122192382812 315.9547729492188 967.9742431640625 315.9547729492188 C 963.3795166015625 315.9547729492188 960.3642578125 319.144287109375 959.8600463867188 322.1452331542969 C 959.3887939453125 324.9499816894531 961.070556640625 327.2546081542969 964.4793701171875 328.4895629882812 C 967.1487426757812 328.8817443847656 969.27978515625 329.557373046875 970.9891357421875 330.5528869628906 C 972.67578125 331.53515625 973.963134765625 332.8591003417969 974.8155517578125 334.4878845214844 C 976.328857421875 337.3797912597656 976.3109130859375 340.7535095214844 976.2918701171875 344.3253784179688 C 976.272216796875 348.0154724121094 976.2518920898438 351.8297119140625 977.973876953125 355.23193359375 C 978.9010009765625 356.504150390625 980.1087646484375 357.0978393554688 981.7638549804688 357.0978393554688 C 986.0112915039062 357.0978393554688 992.2279052734375 353.28076171875 997.7127075195312 349.9129943847656 C 1003.382507324219 346.4316711425781 1008.279113769531 343.4251098632812 1012.142211914062 343.4251098632812 C 1014.410888671875 343.4251098632812 1015.764526367188 344.4809875488281 1016.500549316406 345.3667297363281 C 1017.618713378906 346.71240234375 1018.216247558594 348.6854858398438 1018.327087402344 351.3988342285156 C 1018.411437988281 353.4610290527344 1018.221496582031 355.9581298828125 1017.747741699219 358.9862670898438 C 1019.875549316406 358.9019470214844 1022.277770996094 358.5334777832031 1024.6103515625 358.1756591796875 C 1027.391235351562 357.7491149902344 1030.266845703125 357.3080444335938 1032.85888671875 357.3080444335938 C 1036.050170898438 357.3080444335938 1038.444213867188 357.9976196289062 1040.177490234375 359.4160461425781 C 1040.594604492188 359.7574462890625 1040.856323242188 360.2527160644531 1040.903198242188 360.7897338867188 C 1040.950073242188 361.32666015625 1040.7783203125 361.8598937988281 1040.4267578125 362.2684326171875 C 1039.305541992188 363.5712890625 1038.0654296875 364.7842712402344 1036.8662109375 365.9573974609375 C 1034.72314453125 368.0536193847656 1032.698974609375 370.0335998535156 1031.731201171875 372.1378173828125 C 1031.077270507812 373.5598754882812 1030.568115234375 375.594970703125 1032.417358398438 378.7628173828125 C 1034.039794921875 380.9167785644531 1035.279663085938 383.1947326660156 1036.103515625 385.5350646972656 C 1036.903930664062 387.8089294433594 1037.334228515625 390.2059326171875 1037.382568359375 392.6594543457031 C 1037.469970703125 397.0925598144531 1036.359741210938 401.7575073242188 1033.988647460938 406.9208374023438 C 1029.725463867188 416.2042846679688 1022.019287109375 425.5840454101562 1014.566833496094 434.6549987792969 C 1006.783447265625 444.1288452148438 999.4317016601562 453.0772094726562 996.3021240234375 461.313720703125 C 996.2999877929688 461.3192138671875 996.2979125976562 461.3246765136719 996.2957763671875 461.3301696777344 C 994.6942749023438 465.4357299804688 992.2581176757812 469.26220703125 988.8482055664062 473.0282287597656 C 985.8865966796875 476.2991027832031 982.57275390625 479.1273193359375 979.3680419921875 481.8623962402344 C 970.4507446289062 489.472900390625 962.7493896484375 496.0456237792969 964.95947265625 509.5276794433594 C 964.9957885742188 509.7491760253906 964.9945678710938 509.9751586914062 964.955810546875 510.1962280273438 C 964.5261840820312 512.6497802734375 965.1480102539062 514.5509643554688 966.9720458984375 516.3605346679688 C 968.7940673828125 518.1681518554688 971.5125122070312 519.611083984375 974.390625 521.1387329101562 C 977.04638671875 522.5484008789062 979.7925415039062 524.0059814453125 981.9966430664062 525.8734130859375 C 984.6986083984375 528.1624755859375 986.1688842773438 530.7288208007812 986.4915161132812 533.7189331054688 C 986.57763671875 534.5171508789062 986.1780395507812 535.28955078125 985.4767456054688 535.680419921875 C 977.9953002929688 539.8504638671875 969.1575927734375 540.1995239257812 960.7467041015625 540.1995849609375 C 959.7279663085938 540.1995849609375 958.6914672851562 540.1941528320312 957.6890258789062 540.1889038085938 C 956.6883544921875 540.18359375 955.6536254882812 540.1781616210938 954.6382446289062 540.1781616210938 C 944.240966796875 540.1781616210938 934.2592163085938 540.73583984375 926.422119140625 547.4698486328125 C 926.416015625 547.4750366210938 926.4098510742188 547.4802856445312 926.4036865234375 547.4854736328125 C 923.1339721679688 550.2269897460938 919.4130859375 552.8587646484375 915.814697265625 555.4039916992188 C 904.1683349609375 563.6415405273438 892.1256713867188 572.1595458984375 891.3142700195312 586.641357421875 C 890.8302612304688 599.6978759765625 885.3889770507812 612.6432495117188 880.1268310546875 625.1621704101562 C 874.6227416992188 638.2565307617188 869.4163818359375 650.6416625976562 869.92724609375 662.4091796875 C 872.5977172851562 664.55078125 873.8837890625 666.7045288085938 873.853271484375 668.9736938476562 C 873.8278198242188 670.8648071289062 872.8746948242188 672.6859130859375 870.9393920898438 674.541015625 C 869.4535522460938 675.9652709960938 867.5026245117188 677.3146362304688 865.6159057617188 678.6196899414062 L 865.1792602539062 678.9217529296875 C 865.079345703125 678.9910278320312 864.9732666015625 679.051025390625 864.8624267578125 679.10107421875 C 853.4092407226562 684.2657470703125 846.4111938476562 693.6459350585938 839.0022583007812 703.5768432617188 C 833.8941650390625 710.423828125 828.6121215820312 717.5039672851562 821.7486572265625 723.0425415039062 C 821.6813354492188 723.0968627929688 821.6105346679688 723.1467895507812 821.5367431640625 723.1919555664062 C 816.1506958007812 726.48876953125 809.5722045898438 729.239501953125 802.5125122070312 731.1467895507812 C 795.335693359375 733.085693359375 787.7997436523438 734.1105346679688 780.7192993164062 734.110595703125 Z" stroke="none" fill="#fff"/>
    </g>
    <g id="Path_112" data-name="Path 112" transform="translate(172.197 51.962)" fill="none" stroke-linecap="round" stroke-linejoin="round">
      <path d="M940.335,110.943c-.1,14.909-23.685-7.25-10.908-13.194C936.982,94.027,938.342,107.48,940.335,110.943Z" stroke="none"/>
      <path d="M 936.9402465820312 116.0102462768555 C 938.8896484375 116.0102462768555 940.3104858398438 114.5787658691406 940.3350830078125 110.9433288574219 C 938.3414916992188 107.4804992675781 936.9813842773438 94.02668762207031 929.4267578125 97.74958801269531 C 919.7658081054688 102.2438888549805 930.8948974609375 116.0102462768555 936.9402465820312 116.0102462768555 M 936.9402465820312 118.0102462768555 C 934.5338745117188 118.0102462768555 931.625244140625 116.5133285522461 928.9600830078125 113.9033050537109 C 926.3633422851562 111.3602447509766 924.5117797851562 108.2643585205078 923.8802490234375 105.4094543457031 C 922.953125 101.2186508178711 924.6598510742188 97.77041625976562 928.5631103515625 95.94556427001953 C 929.7021484375 95.38741302490234 930.8197631835938 95.10444641113281 931.8851928710938 95.10444641113281 C 934.3760375976562 95.10444641113281 936.4664916992188 96.57246398925781 938.0985717773438 99.46772766113281 C 939.2964477539062 101.5927047729492 940.0921020507812 104.1503753662109 940.7940673828125 106.4069671630859 C 941.2551879882812 107.8893966674805 941.6907958984375 109.2896118164062 942.068359375 109.9454727172852 C 942.2454223632812 110.2529830932617 942.3374633789062 110.6020584106445 942.3350219726562 110.9568634033203 C 942.3204345703125 113.1179046630859 941.8599243164062 114.8250427246094 940.96630859375 116.0308532714844 C 940.0204467773438 117.3072891235352 938.5906372070312 118.0102462768555 936.9402465820312 118.0102462768555 Z" stroke="none" fill="#fff"/>
    </g>
    <g id="Group_83" data-name="Group 83" transform="translate(963.96 18.089)">
      <g id="location-pin-icon" transform="translate(-7.15 -3.15)" fill="#f1836a">
        <path d="M 39.20713424682617 80.98457336425781 C 29.12175559997559 72.29383850097656 21.44451713562012 64.13261413574219 16.37919998168945 56.71557235717773 C 13.79718971252441 52.93476104736328 11.83744525909424 49.25967407226562 10.55440044403076 45.79240798950195 C 9.29073429107666 42.37749481201172 8.65000057220459 39.07212829589844 8.65000057220459 35.9681282043457 C 8.65000057220459 31.17489433288574 9.425445556640625 26.82310676574707 10.95479011535645 23.03363990783691 C 12.47262287139893 19.2727165222168 14.7829122543335 15.94651699066162 17.82147789001465 13.14742851257324 C 20.88917922973633 10.32151699066162 24.24198913574219 8.17506217956543 27.78677940368652 6.767683982849121 C 31.3260669708252 5.362494945526123 35.16843414306641 4.650006294250488 39.20713424682617 4.650006294250488 C 43.24584579467773 4.650006294250488 47.08819961547852 5.362494945526123 50.62749099731445 6.76769495010376 C 54.17227935791016 8.17507266998291 57.52508926391602 10.32152843475342 60.59280014038086 13.14743995666504 C 63.63136672973633 15.94651699066162 65.94165802001953 19.2727165222168 67.45948028564453 23.03363990783691 C 68.98882293701172 26.82310676574707 69.76426696777344 31.17489433288574 69.76426696777344 35.9681282043457 C 69.76426696777344 39.07213973999023 69.12353515625 42.37749481201172 67.85987091064453 45.79240798950195 C 66.57682037353516 49.25967407226562 64.61708068847656 52.93476104736328 62.03505706787109 56.71557235717773 C 56.96980667114258 64.132568359375 49.29256439208984 72.29380035400391 39.20713424682617 80.98457336425781 Z M 39.20713424682617 26.47764015197754 C 36.8381233215332 26.47764015197754 34.76901245117188 27.34556198120117 33.05728912353516 29.05729484558105 C 31.34555625915527 30.76901817321777 30.47763442993164 32.83812713623047 30.47763442993164 35.20712661743164 C 30.47763442993164 37.57614898681641 31.34555625915527 39.645263671875 33.05728912353516 41.35698318481445 C 34.76902389526367 43.06871795654297 36.838134765625 43.93663787841797 39.20713424682617 43.93663787841797 C 41.57613372802734 43.93663787841797 43.64524459838867 43.06871795654297 45.35697937011719 41.35697174072266 C 47.06871032714844 39.645263671875 47.9366340637207 37.57614898681641 47.9366340637207 35.20712661743164 C 47.9366340637207 32.83812713623047 47.06871032714844 30.76901817321777 45.35697937011719 29.05729484558105 C 43.64525604248047 27.34556198120117 41.57614517211914 26.47764015197754 39.20713424682617 26.47764015197754 Z" stroke="none"/>
        <path d="M 39.20713424682617 6.150001525878906 C 35.35878753662109 6.150001525878906 31.70265579223633 6.826881408691406 28.34028244018555 8.161827087402344 C 24.96692276000977 9.501136779785156 21.76981353759766 11.54972076416016 18.83777236938477 14.25067138671875 C 15.9639892578125 16.89794921875 13.77976226806641 20.04184722900391 12.34578704833984 23.59500503540039 C 10.88877105712891 27.20524215698242 10.15000152587891 31.3681640625 10.15000152587891 35.96812438964844 C 10.15000152587891 38.89388275146484 10.75936126708984 42.02410888671875 11.96117401123047 45.27184295654297 C 13.20172119140625 48.62429809570312 15.10493469238281 52.18991088867188 17.6179084777832 55.86962890625 C 22.44568252563477 62.93886947631836 29.70211410522461 70.712158203125 39.20713424682617 78.99954986572266 C 48.71218872070312 70.71213531494141 55.96861267089844 62.9388427734375 60.79636001586914 55.86962890625 C 63.30933380126953 52.18991088867188 65.21253204345703 48.62429809570312 66.45309448242188 45.27184295654297 C 67.6549072265625 42.02410888671875 68.26426696777344 38.89388275146484 68.26426696777344 35.96813583374023 C 68.26426696777344 31.3681755065918 67.52549743652344 27.20525741577148 66.0684814453125 23.59501647949219 C 64.63450622558594 20.04185485839844 62.45027923583984 16.89796447753906 59.57649230957031 14.25068664550781 C 56.64445495605469 11.54973602294922 53.44733428955078 9.501136779785156 50.073974609375 8.161827087402344 C 46.71161651611328 6.826881408691406 43.05548095703125 6.150001525878906 39.20713424682617 6.150001525878906 M 39.20713424682617 45.43663024902344 C 36.42584228515625 45.43663024902344 33.99988174438477 44.4208984375 31.99662780761719 42.41764450073242 C 29.99336242675781 40.41437911987305 28.97762680053711 37.98841857910156 28.97762680053711 35.20712280273438 C 28.97762680053711 32.42583084106445 29.99337387084961 29.99987030029297 31.99662780761719 27.99663162231445 C 33.99989318847656 25.99336242675781 36.42585372924805 24.97763061523438 39.20713424682617 24.97763061523438 C 41.9884147644043 24.97763061523438 44.41437530517578 25.99336242675781 46.41762542724609 27.99661636352539 C 48.42089462280273 29.99987030029297 49.43664169311523 32.42583084106445 49.43664169311523 35.20712280273438 C 49.43664169311523 37.98841857910156 48.42090606689453 40.41437911987305 46.41764068603516 42.41764450073242 C 44.41438674926758 44.4208984375 41.98842620849609 45.43663024902344 39.20713424682617 45.43663024902344 M 39.20713424682617 3.150001525878906 C 47.70497512817383 3.150001525878906 55.17227935791016 6.114723205566406 61.60908126831055 12.044189453125 C 68.04586791992188 17.97364044189453 71.26426696777344 25.94829559326172 71.26426696777344 35.96813583374023 C 71.26426696777344 42.56346893310547 68.60076141357422 49.76125717163086 63.27376174926758 57.56150817871094 C 57.94677352905273 65.36176300048828 49.924560546875 73.82789611816406 39.20713424682617 82.95989990234375 C 28.48970794677734 73.82789611816406 20.46750640869141 65.36176300048828 15.14050674438477 57.56150817871094 C 9.813491821289062 49.76125717163086 7.150001525878906 42.56346893310547 7.150001525878906 35.96812438964844 C 7.150001525878906 25.94828414916992 10.36840057373047 17.97364044189453 16.8051872253418 12.04417419433594 C 23.24197387695312 6.114723205566406 30.70929336547852 3.150001525878906 39.20713424682617 3.150001525878906 Z M 39.20713424682617 42.43663024902344 C 41.17305374145508 42.43663024902344 42.86944198608398 41.72320556640625 44.29632186889648 40.29632568359375 C 45.72320175170898 38.86944580078125 46.43664169311523 37.17304229736328 46.43664169311523 35.20712280273438 C 46.43664169311523 33.24121856689453 45.72320175170898 31.54481887817383 44.29632186889648 30.11795043945312 C 42.86944198608398 28.69107055664062 41.17305374145508 27.97763061523438 39.20713424682617 27.97763061523438 C 37.24121475219727 27.97763061523438 35.54482650756836 28.69107055664062 34.11794662475586 30.11795043945312 C 32.69106674194336 31.54481887817383 31.97762680053711 33.24121856689453 31.97762680053711 35.20712280273438 C 31.97762680053711 37.17304229736328 32.69106674194336 38.86944580078125 34.11794662475586 40.29632568359375 C 35.54482650756836 41.72320556640625 37.24121475219727 42.43663024902344 39.20713424682617 42.43663024902344 Z" stroke="none" fill="#fff"/>
      </g>
      <g id="location-pin-icon-2" data-name="location-pin-icon" transform="translate(99.159 50.257)" fill="#f1836a">
        <path d="M 39.20713424682617 80.98457336425781 C 29.12175559997559 72.29383850097656 21.44451713562012 64.13261413574219 16.37919998168945 56.71557235717773 C 13.79718971252441 52.93476104736328 11.83744525909424 49.25967407226562 10.55440044403076 45.79240798950195 C 9.29073429107666 42.37749481201172 8.65000057220459 39.07212829589844 8.65000057220459 35.9681282043457 C 8.65000057220459 31.17489433288574 9.425445556640625 26.82310676574707 10.95479011535645 23.03363990783691 C 12.47262287139893 19.2727165222168 14.7829122543335 15.94651699066162 17.82147789001465 13.14742851257324 C 20.88917922973633 10.32151699066162 24.24198913574219 8.17506217956543 27.78677940368652 6.767683982849121 C 31.3260669708252 5.362494945526123 35.16843414306641 4.650006294250488 39.20713424682617 4.650006294250488 C 43.24584579467773 4.650006294250488 47.08819961547852 5.362494945526123 50.62749099731445 6.76769495010376 C 54.17227935791016 8.17507266998291 57.52508926391602 10.32152843475342 60.59280014038086 13.14743995666504 C 63.63136672973633 15.94651699066162 65.94165802001953 19.2727165222168 67.45948028564453 23.03363990783691 C 68.98882293701172 26.82310676574707 69.76426696777344 31.17489433288574 69.76426696777344 35.9681282043457 C 69.76426696777344 39.07213973999023 69.12353515625 42.37749481201172 67.85987091064453 45.79240798950195 C 66.57682037353516 49.25967407226562 64.61708068847656 52.93476104736328 62.03505706787109 56.71557235717773 C 56.96980667114258 64.132568359375 49.29256439208984 72.29380035400391 39.20713424682617 80.98457336425781 Z M 39.20713424682617 26.47764015197754 C 36.8381233215332 26.47764015197754 34.76901245117188 27.34556198120117 33.05728912353516 29.05729484558105 C 31.34555625915527 30.76901817321777 30.47763442993164 32.83812713623047 30.47763442993164 35.20712661743164 C 30.47763442993164 37.57614898681641 31.34555625915527 39.645263671875 33.05728912353516 41.35698318481445 C 34.76902389526367 43.06871795654297 36.838134765625 43.93663787841797 39.20713424682617 43.93663787841797 C 41.57613372802734 43.93663787841797 43.64524459838867 43.06871795654297 45.35697937011719 41.35697174072266 C 47.06871032714844 39.645263671875 47.9366340637207 37.57614898681641 47.9366340637207 35.20712661743164 C 47.9366340637207 32.83812713623047 47.06871032714844 30.76901817321777 45.35697937011719 29.05729484558105 C 43.64525604248047 27.34556198120117 41.57614517211914 26.47764015197754 39.20713424682617 26.47764015197754 Z" stroke="none"/>
        <path d="M 39.20713424682617 6.150001525878906 C 35.35878753662109 6.150001525878906 31.70265579223633 6.826881408691406 28.34028244018555 8.161827087402344 C 24.96692276000977 9.501136779785156 21.76981353759766 11.54972076416016 18.83777236938477 14.25067138671875 C 15.9639892578125 16.89794921875 13.77976226806641 20.04184722900391 12.34578704833984 23.59500503540039 C 10.88877105712891 27.20524215698242 10.15000152587891 31.3681640625 10.15000152587891 35.96812438964844 C 10.15000152587891 38.89388275146484 10.75936126708984 42.02410888671875 11.96117401123047 45.27184295654297 C 13.20172119140625 48.62429809570312 15.10493469238281 52.18991088867188 17.6179084777832 55.86962890625 C 22.44568252563477 62.93886947631836 29.70211410522461 70.712158203125 39.20713424682617 78.99954986572266 C 48.71218872070312 70.71213531494141 55.96861267089844 62.9388427734375 60.79636001586914 55.86962890625 C 63.30933380126953 52.18991088867188 65.21253204345703 48.62429809570312 66.45309448242188 45.27184295654297 C 67.6549072265625 42.02410888671875 68.26426696777344 38.89388275146484 68.26426696777344 35.96813583374023 C 68.26426696777344 31.3681755065918 67.52549743652344 27.20525741577148 66.0684814453125 23.59501647949219 C 64.63450622558594 20.04185485839844 62.45027923583984 16.89796447753906 59.57649230957031 14.25068664550781 C 56.64445495605469 11.54973602294922 53.44733428955078 9.501136779785156 50.073974609375 8.161827087402344 C 46.71161651611328 6.826881408691406 43.05548095703125 6.150001525878906 39.20713424682617 6.150001525878906 M 39.20713424682617 45.43663024902344 C 36.42584228515625 45.43663024902344 33.99988174438477 44.4208984375 31.99662780761719 42.41764450073242 C 29.99336242675781 40.41437911987305 28.97762680053711 37.98841857910156 28.97762680053711 35.20712280273438 C 28.97762680053711 32.42583084106445 29.99337387084961 29.99987030029297 31.99662780761719 27.99663162231445 C 33.99989318847656 25.99336242675781 36.42585372924805 24.97763061523438 39.20713424682617 24.97763061523438 C 41.9884147644043 24.97763061523438 44.41437530517578 25.99336242675781 46.41762542724609 27.99661636352539 C 48.42089462280273 29.99987030029297 49.43664169311523 32.42583084106445 49.43664169311523 35.20712280273438 C 49.43664169311523 37.98841857910156 48.42090606689453 40.41437911987305 46.41764068603516 42.41764450073242 C 44.41438674926758 44.4208984375 41.98842620849609 45.43663024902344 39.20713424682617 45.43663024902344 M 39.20713424682617 3.150001525878906 C 47.70497512817383 3.150001525878906 55.17227935791016 6.114723205566406 61.60908126831055 12.044189453125 C 68.04586791992188 17.97364044189453 71.26426696777344 25.94829559326172 71.26426696777344 35.96813583374023 C 71.26426696777344 42.56346893310547 68.60076141357422 49.76125717163086 63.27376174926758 57.56150817871094 C 57.94677352905273 65.36176300048828 49.924560546875 73.82789611816406 39.20713424682617 82.95989990234375 C 28.48970794677734 73.82789611816406 20.46750640869141 65.36176300048828 15.14050674438477 57.56150817871094 C 9.813491821289062 49.76125717163086 7.150001525878906 42.56346893310547 7.150001525878906 35.96812438964844 C 7.150001525878906 25.94828414916992 10.36840057373047 17.97364044189453 16.8051872253418 12.04417419433594 C 23.24197387695312 6.114723205566406 30.70929336547852 3.150001525878906 39.20713424682617 3.150001525878906 Z M 39.20713424682617 42.43663024902344 C 41.17305374145508 42.43663024902344 42.86944198608398 41.72320556640625 44.29632186889648 40.29632568359375 C 45.72320175170898 38.86944580078125 46.43664169311523 37.17304229736328 46.43664169311523 35.20712280273438 C 46.43664169311523 33.24121856689453 45.72320175170898 31.54481887817383 44.29632186889648 30.11795043945312 C 42.86944198608398 28.69107055664062 41.17305374145508 27.97763061523438 39.20713424682617 27.97763061523438 C 37.24121475219727 27.97763061523438 35.54482650756836 28.69107055664062 34.11794662475586 30.11795043945312 C 32.69106674194336 31.54481887817383 31.97762680053711 33.24121856689453 31.97762680053711 35.20712280273438 C 31.97762680053711 37.17304229736328 32.69106674194336 38.86944580078125 34.11794662475586 40.29632568359375 C 35.54482650756836 41.72320556640625 37.24121475219727 42.43663024902344 39.20713424682617 42.43663024902344 Z" stroke="none" fill="#fff"/>
      </g>
      <g id="location-pin-icon-3" data-name="location-pin-icon" transform="translate(55.297 73.886)" fill="#f1836a">
        <path d="M 39.20713424682617 80.98457336425781 C 29.12175559997559 72.29383850097656 21.44451713562012 64.13261413574219 16.37919998168945 56.71557235717773 C 13.79718971252441 52.93476104736328 11.83744525909424 49.25967407226562 10.55440044403076 45.79240798950195 C 9.29073429107666 42.37749481201172 8.65000057220459 39.07212829589844 8.65000057220459 35.9681282043457 C 8.65000057220459 31.17489433288574 9.425445556640625 26.82310676574707 10.95479011535645 23.03363990783691 C 12.47262287139893 19.2727165222168 14.7829122543335 15.94651699066162 17.82147789001465 13.14742851257324 C 20.88917922973633 10.32151699066162 24.24198913574219 8.17506217956543 27.78677940368652 6.767683982849121 C 31.3260669708252 5.362494945526123 35.16843414306641 4.650006294250488 39.20713424682617 4.650006294250488 C 43.24584579467773 4.650006294250488 47.08819961547852 5.362494945526123 50.62749099731445 6.76769495010376 C 54.17227935791016 8.17507266998291 57.52508926391602 10.32152843475342 60.59280014038086 13.14743995666504 C 63.63136672973633 15.94651699066162 65.94165802001953 19.2727165222168 67.45948028564453 23.03363990783691 C 68.98882293701172 26.82310676574707 69.76426696777344 31.17489433288574 69.76426696777344 35.9681282043457 C 69.76426696777344 39.07213973999023 69.12353515625 42.37749481201172 67.85987091064453 45.79240798950195 C 66.57682037353516 49.25967407226562 64.61708068847656 52.93476104736328 62.03505706787109 56.71557235717773 C 56.96980667114258 64.132568359375 49.29256439208984 72.29380035400391 39.20713424682617 80.98457336425781 Z M 39.20713424682617 26.47764015197754 C 36.8381233215332 26.47764015197754 34.76901245117188 27.34556198120117 33.05728912353516 29.05729484558105 C 31.34555625915527 30.76901817321777 30.47763442993164 32.83812713623047 30.47763442993164 35.20712661743164 C 30.47763442993164 37.57614898681641 31.34555625915527 39.645263671875 33.05728912353516 41.35698318481445 C 34.76902389526367 43.06871795654297 36.838134765625 43.93663787841797 39.20713424682617 43.93663787841797 C 41.57613372802734 43.93663787841797 43.64524459838867 43.06871795654297 45.35697937011719 41.35697174072266 C 47.06871032714844 39.645263671875 47.9366340637207 37.57614898681641 47.9366340637207 35.20712661743164 C 47.9366340637207 32.83812713623047 47.06871032714844 30.76901817321777 45.35697937011719 29.05729484558105 C 43.64525604248047 27.34556198120117 41.57614517211914 26.47764015197754 39.20713424682617 26.47764015197754 Z" stroke="none"/>
        <path d="M 39.20713424682617 6.150001525878906 C 35.35878753662109 6.150001525878906 31.70265579223633 6.826881408691406 28.34028244018555 8.161827087402344 C 24.96692276000977 9.501136779785156 21.76981353759766 11.54972076416016 18.83777236938477 14.25067138671875 C 15.9639892578125 16.89794921875 13.77976226806641 20.04184722900391 12.34578704833984 23.59500503540039 C 10.88877105712891 27.20524215698242 10.15000152587891 31.3681640625 10.15000152587891 35.96812438964844 C 10.15000152587891 38.89388275146484 10.75936126708984 42.02410888671875 11.96117401123047 45.27184295654297 C 13.20172119140625 48.62429809570312 15.10493469238281 52.18991088867188 17.6179084777832 55.86962890625 C 22.44568252563477 62.93886947631836 29.70211410522461 70.712158203125 39.20713424682617 78.99954986572266 C 48.71218872070312 70.71213531494141 55.96861267089844 62.9388427734375 60.79636001586914 55.86962890625 C 63.30933380126953 52.18991088867188 65.21253204345703 48.62429809570312 66.45309448242188 45.27184295654297 C 67.6549072265625 42.02410888671875 68.26426696777344 38.89388275146484 68.26426696777344 35.96813583374023 C 68.26426696777344 31.3681755065918 67.52549743652344 27.20525741577148 66.0684814453125 23.59501647949219 C 64.63450622558594 20.04185485839844 62.45027923583984 16.89796447753906 59.57649230957031 14.25068664550781 C 56.64445495605469 11.54973602294922 53.44733428955078 9.501136779785156 50.073974609375 8.161827087402344 C 46.71161651611328 6.826881408691406 43.05548095703125 6.150001525878906 39.20713424682617 6.150001525878906 M 39.20713424682617 45.43663024902344 C 36.42584228515625 45.43663024902344 33.99988174438477 44.4208984375 31.99662780761719 42.41764450073242 C 29.99336242675781 40.41437911987305 28.97762680053711 37.98841857910156 28.97762680053711 35.20712280273438 C 28.97762680053711 32.42583084106445 29.99337387084961 29.99987030029297 31.99662780761719 27.99663162231445 C 33.99989318847656 25.99336242675781 36.42585372924805 24.97763061523438 39.20713424682617 24.97763061523438 C 41.9884147644043 24.97763061523438 44.41437530517578 25.99336242675781 46.41762542724609 27.99661636352539 C 48.42089462280273 29.99987030029297 49.43664169311523 32.42583084106445 49.43664169311523 35.20712280273438 C 49.43664169311523 37.98841857910156 48.42090606689453 40.41437911987305 46.41764068603516 42.41764450073242 C 44.41438674926758 44.4208984375 41.98842620849609 45.43663024902344 39.20713424682617 45.43663024902344 M 39.20713424682617 3.150001525878906 C 47.70497512817383 3.150001525878906 55.17227935791016 6.114723205566406 61.60908126831055 12.044189453125 C 68.04586791992188 17.97364044189453 71.26426696777344 25.94829559326172 71.26426696777344 35.96813583374023 C 71.26426696777344 42.56346893310547 68.60076141357422 49.76125717163086 63.27376174926758 57.56150817871094 C 57.94677352905273 65.36176300048828 49.924560546875 73.82789611816406 39.20713424682617 82.95989990234375 C 28.48970794677734 73.82789611816406 20.46750640869141 65.36176300048828 15.14050674438477 57.56150817871094 C 9.813491821289062 49.76125717163086 7.150001525878906 42.56346893310547 7.150001525878906 35.96812438964844 C 7.150001525878906 25.94828414916992 10.36840057373047 17.97364044189453 16.8051872253418 12.04417419433594 C 23.24197387695312 6.114723205566406 30.70929336547852 3.150001525878906 39.20713424682617 3.150001525878906 Z M 39.20713424682617 42.43663024902344 C 41.17305374145508 42.43663024902344 42.86944198608398 41.72320556640625 44.29632186889648 40.29632568359375 C 45.72320175170898 38.86944580078125 46.43664169311523 37.17304229736328 46.43664169311523 35.20712280273438 C 46.43664169311523 33.24121856689453 45.72320175170898 31.54481887817383 44.29632186889648 30.11795043945312 C 42.86944198608398 28.69107055664062 41.17305374145508 27.97763061523438 39.20713424682617 27.97763061523438 C 37.24121475219727 27.97763061523438 35.54482650756836 28.69107055664062 34.11794662475586 30.11795043945312 C 32.69106674194336 31.54481887817383 31.97762680053711 33.24121856689453 31.97762680053711 35.20712280273438 C 31.97762680053711 37.17304229736328 32.69106674194336 38.86944580078125 34.11794662475586 40.29632568359375 C 35.54482650756836 41.72320556640625 37.24121475219727 42.43663024902344 39.20713424682617 42.43663024902344 Z" stroke="none" fill="#fff"/>
      </g>
      <g id="location-pin-icon-4" data-name="location-pin-icon" transform="translate(72.175 158.274)" fill="#f1836a">
        <path d="M 39.20713424682617 80.98457336425781 C 29.12175559997559 72.29383850097656 21.44451713562012 64.13261413574219 16.37919998168945 56.71557235717773 C 13.79718971252441 52.93476104736328 11.83744525909424 49.25967407226562 10.55440044403076 45.79240798950195 C 9.29073429107666 42.37749481201172 8.65000057220459 39.07212829589844 8.65000057220459 35.9681282043457 C 8.65000057220459 31.17489433288574 9.425445556640625 26.82310676574707 10.95479011535645 23.03363990783691 C 12.47262287139893 19.2727165222168 14.7829122543335 15.94651699066162 17.82147789001465 13.14742851257324 C 20.88917922973633 10.32151699066162 24.24198913574219 8.17506217956543 27.78677940368652 6.767683982849121 C 31.3260669708252 5.362494945526123 35.16843414306641 4.650006294250488 39.20713424682617 4.650006294250488 C 43.24584579467773 4.650006294250488 47.08819961547852 5.362494945526123 50.62749099731445 6.76769495010376 C 54.17227935791016 8.17507266998291 57.52508926391602 10.32152843475342 60.59280014038086 13.14743995666504 C 63.63136672973633 15.94651699066162 65.94165802001953 19.2727165222168 67.45948028564453 23.03363990783691 C 68.98882293701172 26.82310676574707 69.76426696777344 31.17489433288574 69.76426696777344 35.9681282043457 C 69.76426696777344 39.07213973999023 69.12353515625 42.37749481201172 67.85987091064453 45.79240798950195 C 66.57682037353516 49.25967407226562 64.61708068847656 52.93476104736328 62.03505706787109 56.71557235717773 C 56.96980667114258 64.132568359375 49.29256439208984 72.29380035400391 39.20713424682617 80.98457336425781 Z M 39.20713424682617 26.47764015197754 C 36.8381233215332 26.47764015197754 34.76901245117188 27.34556198120117 33.05728912353516 29.05729484558105 C 31.34555625915527 30.76901817321777 30.47763442993164 32.83812713623047 30.47763442993164 35.20712661743164 C 30.47763442993164 37.57614898681641 31.34555625915527 39.645263671875 33.05728912353516 41.35698318481445 C 34.76902389526367 43.06871795654297 36.838134765625 43.93663787841797 39.20713424682617 43.93663787841797 C 41.57613372802734 43.93663787841797 43.64524459838867 43.06871795654297 45.35697937011719 41.35697174072266 C 47.06871032714844 39.645263671875 47.9366340637207 37.57614898681641 47.9366340637207 35.20712661743164 C 47.9366340637207 32.83812713623047 47.06871032714844 30.76901817321777 45.35697937011719 29.05729484558105 C 43.64525604248047 27.34556198120117 41.57614517211914 26.47764015197754 39.20713424682617 26.47764015197754 Z" stroke="none"/>
        <path d="M 39.20713424682617 6.150001525878906 C 35.35878753662109 6.150001525878906 31.70265579223633 6.826881408691406 28.34028244018555 8.161827087402344 C 24.96692276000977 9.501136779785156 21.76981353759766 11.54972076416016 18.83777236938477 14.25067138671875 C 15.9639892578125 16.89794921875 13.77976226806641 20.04184722900391 12.34578704833984 23.59500503540039 C 10.88877105712891 27.20524215698242 10.15000152587891 31.3681640625 10.15000152587891 35.96812438964844 C 10.15000152587891 38.89388275146484 10.75936126708984 42.02410888671875 11.96117401123047 45.27184295654297 C 13.20172119140625 48.62429809570312 15.10493469238281 52.18991088867188 17.6179084777832 55.86962890625 C 22.44568252563477 62.93886947631836 29.70211410522461 70.712158203125 39.20713424682617 78.99954986572266 C 48.71218872070312 70.71213531494141 55.96861267089844 62.9388427734375 60.79636001586914 55.86962890625 C 63.30933380126953 52.18991088867188 65.21253204345703 48.62429809570312 66.45309448242188 45.27184295654297 C 67.6549072265625 42.02410888671875 68.26426696777344 38.89388275146484 68.26426696777344 35.96813583374023 C 68.26426696777344 31.3681755065918 67.52549743652344 27.20525741577148 66.0684814453125 23.59501647949219 C 64.63450622558594 20.04185485839844 62.45027923583984 16.89796447753906 59.57649230957031 14.25068664550781 C 56.64445495605469 11.54973602294922 53.44733428955078 9.501136779785156 50.073974609375 8.161827087402344 C 46.71161651611328 6.826881408691406 43.05548095703125 6.150001525878906 39.20713424682617 6.150001525878906 M 39.20713424682617 45.43663024902344 C 36.42584228515625 45.43663024902344 33.99988174438477 44.4208984375 31.99662780761719 42.41764450073242 C 29.99336242675781 40.41437911987305 28.97762680053711 37.98841857910156 28.97762680053711 35.20712280273438 C 28.97762680053711 32.42583084106445 29.99337387084961 29.99987030029297 31.99662780761719 27.99663162231445 C 33.99989318847656 25.99336242675781 36.42585372924805 24.97763061523438 39.20713424682617 24.97763061523438 C 41.9884147644043 24.97763061523438 44.41437530517578 25.99336242675781 46.41762542724609 27.99661636352539 C 48.42089462280273 29.99987030029297 49.43664169311523 32.42583084106445 49.43664169311523 35.20712280273438 C 49.43664169311523 37.98841857910156 48.42090606689453 40.41437911987305 46.41764068603516 42.41764450073242 C 44.41438674926758 44.4208984375 41.98842620849609 45.43663024902344 39.20713424682617 45.43663024902344 M 39.20713424682617 3.150001525878906 C 47.70497512817383 3.150001525878906 55.17227935791016 6.114723205566406 61.60908126831055 12.044189453125 C 68.04586791992188 17.97364044189453 71.26426696777344 25.94829559326172 71.26426696777344 35.96813583374023 C 71.26426696777344 42.56346893310547 68.60076141357422 49.76125717163086 63.27376174926758 57.56150817871094 C 57.94677352905273 65.36176300048828 49.924560546875 73.82789611816406 39.20713424682617 82.95989990234375 C 28.48970794677734 73.82789611816406 20.46750640869141 65.36176300048828 15.14050674438477 57.56150817871094 C 9.813491821289062 49.76125717163086 7.150001525878906 42.56346893310547 7.150001525878906 35.96812438964844 C 7.150001525878906 25.94828414916992 10.36840057373047 17.97364044189453 16.8051872253418 12.04417419433594 C 23.24197387695312 6.114723205566406 30.70929336547852 3.150001525878906 39.20713424682617 3.150001525878906 Z M 39.20713424682617 42.43663024902344 C 41.17305374145508 42.43663024902344 42.86944198608398 41.72320556640625 44.29632186889648 40.29632568359375 C 45.72320175170898 38.86944580078125 46.43664169311523 37.17304229736328 46.43664169311523 35.20712280273438 C 46.43664169311523 33.24121856689453 45.72320175170898 31.54481887817383 44.29632186889648 30.11795043945312 C 42.86944198608398 28.69107055664062 41.17305374145508 27.97763061523438 39.20713424682617 27.97763061523438 C 37.24121475219727 27.97763061523438 35.54482650756836 28.69107055664062 34.11794662475586 30.11795043945312 C 32.69106674194336 31.54481887817383 31.97762680053711 33.24121856689453 31.97762680053711 35.20712280273438 C 31.97762680053711 37.17304229736328 32.69106674194336 38.86944580078125 34.11794662475586 40.29632568359375 C 35.54482650756836 41.72320556640625 37.24121475219727 42.43663024902344 39.20713424682617 42.43663024902344 Z" stroke="none" fill="#fff"/>
      </g>
    </g>
  </g>
</svg>
