<svg xmlns="http://www.w3.org/2000/svg" width="31" height="20" viewBox="0 0 31 20">
  <defs>
    <style>
      .cls-1 {
        fill: rgba(255,255,255,0);
      }

      .cls-2 {
        fill: #fff;
      }
    </style>
  </defs>
  <g id="Group_83" data-name="Group 83" transform="translate(-0.407)">
    <rect id="Rectangle_44" data-name="Rectangle 44" class="cls-1" width="31" height="20" transform="translate(0.407)"/>
    <g id="Group_78" data-name="Group 78" transform="translate(10 2)">
      <path id="Path_5" data-name="Path 5" class="cls-2" d="M624.777,335.859l-.321,1.613c-.051.257-.1.514-.154.77a.6.6,0,0,1-.055.112c.11.151.234.323.361.493q.318.43.637.858a4.793,4.793,0,0,1,.9,2.03c.162.882.377,1.753.571,2.629a.889.889,0,1,1-1.731.4c-.185-.81-.367-1.62-.54-2.433a4.378,4.378,0,0,0-.682-1.553c-.447-.659-.912-1.306-1.365-1.961-.195-.281-.372-.575-.57-.854a1.719,1.719,0,0,1-.252-1.409c.156-.752.3-1.5.46-2.29-.049.041-.074.06-.1.082-.367.335-.734.668-1.1,1.006a.245.245,0,0,0-.072.149c-.054.819-.1,1.639-.154,2.459a.669.669,0,0,1-.751.643.682.682,0,0,1-.6-.754c.039-.523.064-1.046.1-1.569.025-.39.045-.781.082-1.171a.951.951,0,0,1,.327-.616q1.122-1.026,2.246-2.05c.1-.087.183-.184.286-.261a.967.967,0,0,1,.784-.175q.664.125,1.325.262a.984.984,0,0,1,.775.649c.1.272.157.556.23.836a9.308,9.308,0,0,0,.65,1.665.766.766,0,0,0,.44.393c.6.232,1.193.476,1.788.716a.757.757,0,0,1,.46.387.676.676,0,0,1-.123.731.722.722,0,0,1-.8.149c-.726-.29-1.448-.588-2.178-.87a1.111,1.111,0,0,1-.59-.521c-.076-.137-.145-.278-.218-.418C624.832,335.955,624.811,335.92,624.777,335.859Z" transform="translate(-618.798 -328.532)"/>
      <path id="Path_6" data-name="Path 6" class="cls-2" d="M599.588,635.825l.446.693q.45.7.9,1.4a.2.2,0,0,1,.034.124,8.039,8.039,0,0,1-.159.843,2.321,2.321,0,0,1-.265.6c-.576.921-1.163,1.835-1.752,2.748a.843.843,0,0,1-.89.4.824.824,0,0,1-.717-.66.943.943,0,0,1,.144-.76c.44-.689.867-1.387,1.321-2.066a4.591,4.591,0,0,0,.7-1.865c.072-.452.14-.9.21-1.356C599.569,635.9,599.577,635.874,599.588,635.825Z" transform="translate(-597.158 -625.993)"/>
      <path id="Path_7" data-name="Path 7" class="cls-2" d="M796.794,170.424a1.627,1.627,0,1,1,1.64-1.623A1.623,1.623,0,0,1,796.794,170.424Z" transform="translate(-791.019 -167.17)"/>
    </g>
  </g>
</svg>
