<svg xmlns="http://www.w3.org/2000/svg" width="12.375" height="18" viewBox="0 0 12.375 18">
  <defs>
    <style>
      .cls-1 {
        fill: #c5c9cc;
      }
    </style>
  </defs>
  <path id="Icon_awesome-lightbulb" data-name="Icon awesome-lightbulb" class="cls-1" d="M3.377,15.973a1.125,1.125,0,0,0,.188.622l.6.9A1.125,1.125,0,0,0,5.1,18H7.272a1.125,1.125,0,0,0,.937-.5l.6-.9A1.125,1.125,0,0,0,9,15.973V14.625H3.375l0,1.348ZM0,6.187a6.153,6.153,0,0,0,1.531,4.07,10.1,10.1,0,0,1,1.835,3.215l0,.027H9l0-.027a10.1,10.1,0,0,1,1.835-3.215A6.186,6.186,0,1,0,0,6.187ZM6.187,3.375A2.816,2.816,0,0,0,3.375,6.187a.562.562,0,0,1-1.125,0A3.942,3.942,0,0,1,6.187,2.25a.562.562,0,0,1,0,1.125Z" transform="translate(0 0)"/>
</svg>
