<svg id="icon-holder" xmlns="http://www.w3.org/2000/svg" width="36" height="36" viewBox="0 0 36 36">
  <defs>
    <style>
      .cls-1 {
        fill: rgba(255,255,255,0);
      }

      .cls-2 {
        fill: #fff;
      }
    </style>
  </defs>
  <rect id="Rectangle_25" data-name="Rectangle 25" class="cls-1" width="36" height="36"/>
  <g id="area" transform="translate(5 7.6)">
    <path id="Icon_awesome-door-open" data-name="Icon awesome-door-open" class="cls-2" d="M25.35,18.2H22.1V4.609A1.982,1.982,0,0,0,20.15,2.6H15.6V5.2h3.9V20.8h5.85a.65.65,0,0,0,.65-.65v-1.3A.65.65,0,0,0,25.35,18.2ZM12.685.041l-7.8,2.021A1.339,1.339,0,0,0,3.9,3.369V18.2H.65a.65.65,0,0,0-.65.65v1.3a.65.65,0,0,0,.65.65H14.3V1.348A1.311,1.311,0,0,0,12.685.041ZM10.725,11.7c-.538,0-.975-.582-.975-1.3s.437-1.3.975-1.3.975.582.975,1.3S11.263,11.7,10.725,11.7Z" transform="translate(0 0)"/>
  </g>
</svg>
