<svg id="icon-holder" xmlns="http://www.w3.org/2000/svg" width="36" height="36" viewBox="0 0 36 36">
  <defs>
    <style>
      .cls-1 {
        fill: rgba(255,255,255,0);
      }

      .cls-2 {
        fill: #fff;
      }
    </style>
  </defs>
  <rect id="Rectangle_25" data-name="Rectangle 25" class="cls-1" width="36" height="36"/>
  <g id="recordings" transform="translate(5 7.6)">
    <path id="Icon_awesome-photo-video" data-name="Icon awesome-photo-video" class="cls-2" d="M24.7,0H6.5A1.3,1.3,0,0,0,5.2,1.3V5.2h6.5V2.6h7.8v13h5.2A1.3,1.3,0,0,0,26,14.3V1.3A1.3,1.3,0,0,0,24.7,0ZM9.425,4.184a.366.366,0,0,1-.366.366H7.841a.366.366,0,0,1-.366-.366V2.966A.366.366,0,0,1,7.841,2.6H9.059a.366.366,0,0,1,.366.366Zm14.3,8.45a.366.366,0,0,1-.366.366H22.141a.366.366,0,0,1-.366-.366V11.416a.366.366,0,0,1,.366-.366h1.219a.366.366,0,0,1,.366.366Zm0-4.225a.366.366,0,0,1-.366.366H22.141a.366.366,0,0,1-.366-.366V7.191a.366.366,0,0,1,.366-.366h1.219a.366.366,0,0,1,.366.366Zm0-4.225a.366.366,0,0,1-.366.366H22.141a.366.366,0,0,1-.366-.366V2.966a.366.366,0,0,1,.366-.366h1.219a.366.366,0,0,1,.366.366ZM16.9,6.5H1.3A1.3,1.3,0,0,0,0,7.8V19.5a1.3,1.3,0,0,0,1.3,1.3H16.9a1.3,1.3,0,0,0,1.3-1.3V7.8A1.3,1.3,0,0,0,16.9,6.5ZM3.9,9.1a1.3,1.3,0,1,1-1.3,1.3A1.3,1.3,0,0,1,3.9,9.1Zm11.7,9.1H2.6V16.9l2.6-2.6,1.3,1.3,5.2-5.2,3.9,3.9Z"/>
  </g>
</svg>
