<svg id="icon-holder" xmlns="http://www.w3.org/2000/svg" width="36" height="36" viewBox="0 0 36 36">
  <defs>
    <style>
      .cls-1 {
        fill: rgba(255,255,255,0);
      }

      .cls-2 {
        fill: #fff;
      }
    </style>
  </defs>
  <rect id="Rectangle_25" data-name="Rectangle 25" class="cls-1" width="36" height="36"/>
  <g id="call" transform="translate(5 5)">
    <path id="Icon_ionic-ios-call" data-name="Icon ionic-ios-call" class="cls-2" d="M29.739,24.859a21.838,21.838,0,0,0-4.562-3.053c-1.367-.657-1.868-.643-2.836.054-.805.582-1.327,1.124-2.254.921s-2.755-1.584-4.528-3.35-3.154-3.6-3.35-4.528.345-1.448.921-2.254c.7-.968.717-1.469.054-2.836a21.407,21.407,0,0,0-3.053-4.562c-.995-.995-1.218-.778-1.767-.582a10.052,10.052,0,0,0-1.618.86A4.88,4.88,0,0,0,4.8,7.58c-.386.833-.833,2.382,1.442,6.43a35.879,35.879,0,0,0,6.308,8.413h0l.007.007.007.007h0a36.019,36.019,0,0,0,8.413,6.308c4.048,2.274,5.6,1.827,6.43,1.442a4.8,4.8,0,0,0,2.051-1.943,10.052,10.052,0,0,0,.86-1.618C30.517,26.078,30.741,25.854,29.739,24.859Z" transform="translate(-4.49 -4.502)"/>
  </g>
</svg>
