<svg id="icon-holder" xmlns="http://www.w3.org/2000/svg" width="36" height="36" viewBox="0 0 36 36">
  <defs>
    <style>
      .cls-1 {
        fill: rgba(255,255,255,0);
      }

      .cls-2 {
        fill: #fff;
      }
    </style>
  </defs>
  <rect id="Rectangle_25" data-name="Rectangle 25" class="cls-1" width="36" height="36"/>
  <g id="dashboard" transform="translate(5 5)">
    <path id="Icon_open-dashboard" data-name="Icon open-dashboard" class="cls-2" d="M13,0A13,13,0,1,0,26,13,13.038,13.038,0,0,0,13,0Zm0,3.25A9.75,9.75,0,1,1,3.25,13,9.737,9.737,0,0,1,13,3.25ZM13,6.5a1.625,1.625,0,1,0,1.625,1.625A1.609,1.609,0,0,0,13,6.5ZM7.605,9.75a1.625,1.625,0,0,0-.617,2.73l2.957,2.957a3.3,3.3,0,0,0-.195.813A3.25,3.25,0,1,0,13,13a3.3,3.3,0,0,0-.812.195L9.23,10.238a1.625,1.625,0,0,0-1.43-.52,1.625,1.625,0,0,0-.2,0Zm10.27,0A1.625,1.625,0,1,0,19.5,11.375,1.609,1.609,0,0,0,17.875,9.75Z"/>
  </g>
</svg>
