<svg xmlns="http://www.w3.org/2000/svg" width="294.425" height="177.267" viewBox="0 0 294.425 177.267">
  <defs>
    <style>
      .cls-1 {
        fill: #1f2d36;
      }

      .cls-2 {
        fill: #2b3a45;
      }

      .cls-3 {
        fill: #3f3d56;
      }

      .cls-4 {
        fill: #fff;
      }

      .cls-5 {
        fill: #0097ff;
      }
    </style>
  </defs>
  <g id="Group_169" data-name="Group 169" transform="translate(0 0)">
    <path id="Path_66" data-name="Path 66" class="cls-1" d="M607.376,284.608a4.477,4.477,0,0,1-4.453,4.5H406.993a4.477,4.477,0,0,1-4.453-4.5V150.775a4.477,4.477,0,0,1,4.453-4.5h195.93a4.476,4.476,0,0,1,4.453,4.5h0Z" transform="translate(-312.95 -146.275)"/>
    <path id="Path_67" data-name="Path 67" class="cls-2" d="M611,288.244a4.351,4.351,0,0,1-4.351,4.351H415.271a4.351,4.351,0,0,1-4.351-4.351V158.856a4.351,4.351,0,0,1,4.351-4.351H606.657A4.351,4.351,0,0,1,611,158.856Z" transform="translate(-318.885 -152.103)"/>
    <path id="c6fe725a-3b03-4a96-90af-cfbd2676500a" class="cls-1" d="M344.163,27.48H523.989a2.583,2.583,0,0,1,2.583,2.583V151.251a2.583,2.583,0,0,1-2.583,2.583H344.163a2.583,2.583,0,0,1-2.583-2.583V30.063A2.583,2.583,0,0,1,344.163,27.48Z" transform="translate(-241.899 -19.461)"/>
    <path id="Path_68" data-name="Path 68" class="cls-2" d="M351.963,37.44H527.041a2.583,2.583,0,0,1,2.583,2.583V154.744a2.583,2.583,0,0,1-2.583,2.583H351.963a2.583,2.583,0,0,1-2.583-2.583V40.023A2.583,2.583,0,0,1,351.963,37.44Z" transform="translate(-247.423 -26.514)"/>
    <path id="Path_69" data-name="Path 69" class="cls-3" d="M835.563,360.949a4.923,4.923,0,0,1-2-.426,2.427,2.427,0,0,1-.417-.237l-12.724-8.957h0a4.923,4.923,0,0,1-2.089-4.024V335.09a4.922,4.922,0,0,1,2.088-4.024l12.725-8.957a2.427,2.427,0,0,1,.417-.237,4.923,4.923,0,0,1,6.923,4.5v29.654a4.923,4.923,0,0,1-4.923,4.923Z" transform="translate(-607.406 -270.329)"/>
    <path id="Path_70" data-name="Path 70" class="cls-3" d="M661.848,357.518H626.36c-7.24-.006-13.108-4.686-13.115-10.461V323.674c.007-5.775,5.875-10.455,13.115-10.461h35.58c7.189.007,13.014,4.653,13.023,10.387v23.457C674.955,352.832,669.088,357.513,661.848,357.518Z" transform="translate(-462.167 -264.497)"/>
    <circle id="Ellipse_14" data-name="Ellipse 14" class="cls-1" cx="10.554" cy="10.554" r="10.554" transform="translate(252.342 102.327)"/>
    <path id="Path_71" data-name="Path 71" class="cls-4" d="M993.989,520.582l-8.413-4.857a.218.218,0,0,0-.328.189v9.714a.218.218,0,0,0,.328.189l8.413-4.857a.218.218,0,0,0,0-.378l-8.413-4.857a.218.218,0,0,0-.328.189v9.714a.218.218,0,0,0,.328.189l8.413-4.857a.218.218,0,0,0,0-.378Z" transform="translate(-725.611 -407.89)"/>
    <path id="Path_72" data-name="Path 72" class="cls-1" d="M452.376,339.607a4.477,4.477,0,0,1-4.453,4.5H251.993a4.477,4.477,0,0,1-4.453-4.5V205.775a4.477,4.477,0,0,1,4.453-4.5h195.93a4.477,4.477,0,0,1,4.453,4.5h0Z" transform="translate(-203.183 -185.225)"/>
    <path id="Path_73" data-name="Path 73" class="cls-2" d="M456,343.244a4.351,4.351,0,0,1-4.351,4.351H260.271a4.351,4.351,0,0,1-4.351-4.351V213.856a4.351,4.351,0,0,1,4.351-4.351H451.657A4.351,4.351,0,0,1,456,213.856Z" transform="translate(-209.117 -191.053)"/>
    <path id="c6fe725a-3b03-4a96-90af-cfbd2676500a-2" data-name="c6fe725a-3b03-4a96-90af-cfbd2676500a" class="cls-1" d="M189.163,82.48H368.989a2.583,2.583,0,0,1,2.583,2.583V206.251a2.583,2.583,0,0,1-2.583,2.583H189.163a2.583,2.583,0,0,1-2.583-2.583V85.063A2.583,2.583,0,0,1,189.163,82.48Z" transform="translate(-132.132 -58.41)"/>
    <path id="Path_74" data-name="Path 74" class="cls-2" d="M196.963,92.44H372.041a2.583,2.583,0,0,1,2.583,2.583V209.744a2.583,2.583,0,0,1-2.583,2.583H196.963a2.583,2.583,0,0,1-2.583-2.583V95.023A2.583,2.583,0,0,1,196.963,92.44Z" transform="translate(-137.656 -65.464)"/>
    <path id="Path_75" data-name="Path 75" class="cls-3" d="M680.563,415.949a4.923,4.923,0,0,1-2-.426,2.425,2.425,0,0,1-.417-.237l-12.724-8.957h0a4.923,4.923,0,0,1-2.089-4.024V390.09a4.922,4.922,0,0,1,2.088-4.024l12.725-8.957a2.425,2.425,0,0,1,.417-.237,4.923,4.923,0,0,1,6.923,4.5v29.654a4.923,4.923,0,0,1-4.923,4.923Z" transform="translate(-497.638 -309.278)"/>
    <path id="Path_76" data-name="Path 76" class="cls-3" d="M506.848,412.518H471.36c-7.24-.006-13.108-4.686-13.115-10.461V378.674c.007-5.775,5.875-10.455,13.115-10.461h35.58c7.189.007,13.014,4.653,13.023,10.387v23.457C519.955,407.832,514.088,412.513,506.848,412.518Z" transform="translate(-352.4 -303.446)"/>
    <circle id="Ellipse_15" data-name="Ellipse 15" class="cls-1" cx="10.554" cy="10.554" r="10.554" transform="translate(207.11 118.377)"/>
    <path id="Path_77" data-name="Path 77" class="cls-4" d="M838.993,575.582l-8.413-4.857a.219.219,0,0,0-.328.189v9.714a.219.219,0,0,0,.328.189l8.413-4.857a.218.218,0,0,0,0-.378l-8.413-4.857a.219.219,0,0,0-.328.189v9.715a.219.219,0,0,0,.328.189l8.413-4.857a.218.218,0,0,0,0-.378Z" transform="translate(-615.846 -446.84)"/>
    <path id="Path_78" data-name="Path 78" class="cls-1" d="M300.376,402.607a4.477,4.477,0,0,1-4.453,4.5H99.993a4.477,4.477,0,0,1-4.453-4.5V268.775a4.477,4.477,0,0,1,4.453-4.5h195.93a4.477,4.477,0,0,1,4.453,4.5h0Z" transform="translate(-95.54 -229.84)"/>
    <path id="Path_79" data-name="Path 79" class="cls-2" d="M304,406.244a4.351,4.351,0,0,1-4.351,4.351H108.271a4.351,4.351,0,0,1-4.351-4.351V276.856a4.351,4.351,0,0,1,4.351-4.351H299.657A4.351,4.351,0,0,1,304,276.856Z" transform="translate(-101.474 -235.668)"/>
    <path id="c6fe725a-3b03-4a96-90af-cfbd2676500a-3" data-name="c6fe725a-3b03-4a96-90af-cfbd2676500a" class="cls-1" d="M37.163,145.48H216.99a2.583,2.583,0,0,1,2.583,2.583V269.251a2.583,2.583,0,0,1-2.583,2.583H37.163a2.583,2.583,0,0,1-2.583-2.583V148.063a2.583,2.583,0,0,1,2.583-2.583Z" transform="translate(-24.489 -103.026)"/>
    <path id="Path_80" data-name="Path 80" class="cls-2" d="M44.963,155.44H220.042a2.583,2.583,0,0,1,2.583,2.583V272.744a2.583,2.583,0,0,1-2.583,2.583H44.963a2.583,2.583,0,0,1-2.583-2.583V158.023a2.583,2.583,0,0,1,2.583-2.583Z" transform="translate(-30.013 -110.079)"/>
    <path id="Path_81" data-name="Path 81" class="cls-5" d="M528.563,478.949a4.922,4.922,0,0,1-2-.426,2.425,2.425,0,0,1-.417-.237l-12.724-8.957h0a4.923,4.923,0,0,1-2.089-4.024V453.091a4.922,4.922,0,0,1,2.088-4.024l12.725-8.957a2.425,2.425,0,0,1,.417-.237,4.923,4.923,0,0,1,6.923,4.5v29.654a4.923,4.923,0,0,1-4.923,4.923Z" transform="translate(-389.996 -353.894)"/>
    <path id="Path_82" data-name="Path 82" class="cls-5" d="M354.848,475.518H319.36c-7.24-.006-13.108-4.686-13.115-10.461V441.674c.007-5.775,5.875-10.455,13.115-10.461h35.58c7.189.007,13.014,4.653,13.023,10.387v23.457C367.955,470.832,362.088,475.513,354.848,475.518Z" transform="translate(-244.756 -348.061)"/>
    <circle id="Ellipse_16" data-name="Ellipse 16" class="cls-5" cx="10.554" cy="10.554" r="10.554" transform="translate(162.753 136.762)"/>
    <path id="Path_83" data-name="Path 83" class="cls-4" d="M686.993,638.582l-8.413-4.857a.219.219,0,0,0-.328.189v9.715a.218.218,0,0,0,.328.189l8.413-4.857a.219.219,0,0,0,0-.378l-8.413-4.857a.218.218,0,0,0-.328.189v9.714a.218.218,0,0,0,.328.189l8.413-4.857a.219.219,0,0,0,0-.379Z" transform="translate(-508.203 -491.455)"/>
  </g>
</svg>
