<svg xmlns="http://www.w3.org/2000/svg" xmlns:xlink="http://www.w3.org/1999/xlink" width="1920" height="1170.633" viewBox="0 0 1920 1170.633">
  <defs>
    <style>
      .cls-1 {
        fill: #fff;
        stroke: #707070;
      }

      .cls-2 {
        fill: none;
      }

      .cls-3 {
        fill: #f1836a;
      }

      .cls-4 {
        clip-path: url(#clip-path);
      }

      .cls-5 {
        clip-path: url(#clip-path-2);
      }

      .cls-6 {
        clip-path: url(#clip-path-3);
      }
    </style>
    <clipPath id="clip-path">
      <rect id="Rectangle_22" data-name="Rectangle 22" class="cls-1" width="1920" height="631" transform="translate(0 1073)"/>
    </clipPath>
    <clipPath id="clip-path-2">
      <rect class="cls-2" width="2625.5" height="185.172"/>
    </clipPath>
    <clipPath id="clip-path-3">
      <rect class="cls-2" width="1975.5" height="115.553"/>
    </clipPath>
  </defs>
  <g id="Group_137" data-name="Group 137" transform="translate(0 -1193)">
    <path id="Path_24" data-name="Path 24" class="cls-3" d="M0-10.787S185.971,58.1,538,37.486,1062.615-81.186,1408.115-93.255,1920-10.787,1920-10.787V839.765s-206.764-87.778-600.46-63.236S741.343,910.851,416,926.66,0,839.765,0,839.765Z" transform="translate(0 1435.319)"/>
    <g id="Mask_Group_5" data-name="Mask Group 5" class="cls-4" transform="translate(0 120)">
      <g id="Group_58" data-name="Group 58" transform="translate(0 -7)">
        <g id="Repeat_Grid_2" data-name="Repeat Grid 2" class="cls-5" transform="translate(-705.5 1205.553)">
          <g transform="translate(261.5 -1195.553)">
            <g id="Layer_1" data-name="Layer 1" transform="translate(-261.5 1195.553)">
              <g id="Group_56" data-name="Group 56" transform="translate(0 0)">
                <path id="Path_31" data-name="Path 31" class="cls-3" d="M264.06,91.99C264.06,32.626,299.315,0,353.42,0c47.328,0,75.843,24.108,80.546,69.955l-50.55,9.406c-3.518-22.331-11.74-33.515-31.737-33.515-25.59,0-34.959,21.146-34.959,46.143,0,29.96,9.7,48.217,34.7,48.217,21.146,0,28.219-11.48,32.922-34.107L434.3,114.32c-5,45.847-34.7,70.844-82.287,70.844-54.957,0-87.879-34.107-87.879-93.175Z" transform="translate(713.829 0.008)"/>
                <path id="Path_32" data-name="Path 32" class="cls-3" d="M281.155,64.517C217.681,30.6,166.539-46.581,96.88,38.853l146.28,146.28L382.773,45.63c1.741-1.666,5.037-5.073,6.7-6.777-44-51.253-72.807,1.629-108.321,25.7ZM243.2,168.394l-129.5-129.5c62.548-63.845,98.655,6.3,155.131,33.441.815.37,1.666.778,2.481,1.148a121.321,121.321,0,0,0,11.443,4.444c.741.222,1.481.481,2.259.7.741.222,1.518.444,2.3.63A82.887,82.887,0,0,0,312,82.108c.926-.037,1.852-.111,2.852-.148a97.32,97.32,0,0,0,17.813-3L243.2,168.394Z" transform="translate(261.894 0.002)"/>
                <g id="Group_54" data-name="Group 54" transform="translate(0 0.008)">
                  <path id="Path_33" data-name="Path 33" class="cls-3" d="M51.846,43.518,26.627,82.439H0L44.439,38A76.852,76.852,0,0,0,51.846,43.518Z" transform="translate(0 102.725)"/>
                  <path id="Path_34" data-name="Path 34" class="cls-3" d="M28.447,40.69a78.752,78.752,0,0,0,13.776,5.185L34.409,75.168H11.56L28.447,40.69Z" transform="translate(31.25 109.997)"/>
                  <path id="Path_35" data-name="Path 35" class="cls-3" d="M39.788,43.237l1.444,26.849H21.16L25.085,42.57a78.8,78.8,0,0,0,14.7.667Z" transform="translate(57.201 115.079)"/>
                  <path id="Path_36" data-name="Path 36" class="cls-3" d="M42.767,41.42,54.987,73.194H33.471L28.62,45.345A76.959,76.959,0,0,0,42.767,41.42Z" transform="translate(77.368 111.97)"/>
                  <path id="Path_37" data-name="Path 37" class="cls-3" d="M46.918,38.22,82.284,81.845H53.436L34.66,46.33A74.761,74.761,0,0,0,46.918,38.22Z" transform="translate(93.696 103.319)"/>
                  <path id="Path_38" data-name="Path 38" class="cls-3" d="M49.08,47.439a72.913,72.913,0,0,0-8.11-12.221L84.447,0l18.776,18.776L49.08,47.439Z" transform="translate(110.754)"/>
                  <path id="Path_39" data-name="Path 39" class="cls-3" d="M44.17,32.709,107.237,8.49,131.2,32.45,48.133,46.93a73.763,73.763,0,0,0-3.925-14.184Z" transform="translate(119.404 22.951)"/>
                  <path id="Path_40" data-name="Path 40" class="cls-3" d="M48.944,33.47,143.3,94.685H91.05l-51.29-49.7a76.137,76.137,0,0,0,9.184-11.48Z" transform="translate(107.483 90.479)"/>
                  <path id="Path_41" data-name="Path 41" class="cls-3" d="M45.96,25.146l100.211-5.3,40.07,40.07L45.33,39.811A78.8,78.8,0,0,0,46,25.109Z" transform="translate(122.54 53.66)"/>
                  <path id="Path_42" data-name="Path 42" class="cls-3" d="M262.906,110.472H184.323L43.45,41.406A78.64,78.64,0,0,0,48.6,27.63L228.1,75.662Z" transform="translate(117.458 74.692)"/>
                </g>
                <g id="Group_55" data-name="Group 55" transform="translate(727.325 0.008)">
                  <path id="Path_43" data-name="Path 43" class="cls-3" d="M235.507,9.311A31.208,31.208,0,0,1,225.99,8.2,33.221,33.221,0,0,0,235.507,9.311Z" transform="translate(-116.41 22.167)"/>
                  <path id="Path_44" data-name="Path 44" class="cls-3" d="M381.564,8.073,373.491,0,288.982,84.509,204.473,0,196.4,8.073l84.509,84.509L196.4,177.091l8.073,8.073,84.509-84.509,84.509,84.509,8.073-8.073L297.055,92.582Z" transform="translate(-196.4)"/>
                </g>
                <path id="Path_45" data-name="Path 45" class="cls-3" d="M313.5,91.99C313.5,32.626,348.755,0,402.86,0c47.328,0,75.843,24.108,80.546,69.955l-50.55,9.406c-3.518-22.331-11.74-33.515-31.737-33.515-25.59,0-34.959,21.146-34.959,46.143,0,29.96,9.7,48.217,34.7,48.217,21.146,0,28.219-11.48,32.922-34.107l49.957,8.221c-5,45.847-34.7,70.844-82.287,70.844-54.957,0-87.879-34.107-87.879-93.175Z" transform="translate(847.479 0.008)"/>
              </g>
            </g>
          </g>
          <g transform="translate(1613.5 -1195.553)">
            <g id="Layer_1-2" data-name="Layer 1" transform="translate(-261.5 1195.553)">
              <g id="Group_56-2" data-name="Group 56" transform="translate(0 0)">
                <path id="Path_31-2" data-name="Path 31" class="cls-3" d="M264.06,91.99C264.06,32.626,299.315,0,353.42,0c47.328,0,75.843,24.108,80.546,69.955l-50.55,9.406c-3.518-22.331-11.74-33.515-31.737-33.515-25.59,0-34.959,21.146-34.959,46.143,0,29.96,9.7,48.217,34.7,48.217,21.146,0,28.219-11.48,32.922-34.107L434.3,114.32c-5,45.847-34.7,70.844-82.287,70.844-54.957,0-87.879-34.107-87.879-93.175Z" transform="translate(713.829 0.008)"/>
                <path id="Path_32-2" data-name="Path 32" class="cls-3" d="M281.155,64.517C217.681,30.6,166.539-46.581,96.88,38.853l146.28,146.28L382.773,45.63c1.741-1.666,5.037-5.073,6.7-6.777-44-51.253-72.807,1.629-108.321,25.7ZM243.2,168.394l-129.5-129.5c62.548-63.845,98.655,6.3,155.131,33.441.815.37,1.666.778,2.481,1.148a121.321,121.321,0,0,0,11.443,4.444c.741.222,1.481.481,2.259.7.741.222,1.518.444,2.3.63A82.887,82.887,0,0,0,312,82.108c.926-.037,1.852-.111,2.852-.148a97.32,97.32,0,0,0,17.813-3L243.2,168.394Z" transform="translate(261.894 0.002)"/>
                <g id="Group_54-2" data-name="Group 54" transform="translate(0 0.008)">
                  <path id="Path_33-2" data-name="Path 33" class="cls-3" d="M51.846,43.518,26.627,82.439H0L44.439,38A76.852,76.852,0,0,0,51.846,43.518Z" transform="translate(0 102.725)"/>
                  <path id="Path_34-2" data-name="Path 34" class="cls-3" d="M28.447,40.69a78.752,78.752,0,0,0,13.776,5.185L34.409,75.168H11.56L28.447,40.69Z" transform="translate(31.25 109.997)"/>
                  <path id="Path_35-2" data-name="Path 35" class="cls-3" d="M39.788,43.237l1.444,26.849H21.16L25.085,42.57a78.8,78.8,0,0,0,14.7.667Z" transform="translate(57.201 115.079)"/>
                  <path id="Path_36-2" data-name="Path 36" class="cls-3" d="M42.767,41.42,54.987,73.194H33.471L28.62,45.345A76.959,76.959,0,0,0,42.767,41.42Z" transform="translate(77.368 111.97)"/>
                  <path id="Path_37-2" data-name="Path 37" class="cls-3" d="M46.918,38.22,82.284,81.845H53.436L34.66,46.33A74.761,74.761,0,0,0,46.918,38.22Z" transform="translate(93.696 103.319)"/>
                  <path id="Path_38-2" data-name="Path 38" class="cls-3" d="M49.08,47.439a72.913,72.913,0,0,0-8.11-12.221L84.447,0l18.776,18.776L49.08,47.439Z" transform="translate(110.754)"/>
                  <path id="Path_39-2" data-name="Path 39" class="cls-3" d="M44.17,32.709,107.237,8.49,131.2,32.45,48.133,46.93a73.763,73.763,0,0,0-3.925-14.184Z" transform="translate(119.404 22.951)"/>
                  <path id="Path_40-2" data-name="Path 40" class="cls-3" d="M48.944,33.47,143.3,94.685H91.05l-51.29-49.7a76.137,76.137,0,0,0,9.184-11.48Z" transform="translate(107.483 90.479)"/>
                  <path id="Path_41-2" data-name="Path 41" class="cls-3" d="M45.96,25.146l100.211-5.3,40.07,40.07L45.33,39.811A78.8,78.8,0,0,0,46,25.109Z" transform="translate(122.54 53.66)"/>
                  <path id="Path_42-2" data-name="Path 42" class="cls-3" d="M262.906,110.472H184.323L43.45,41.406A78.64,78.64,0,0,0,48.6,27.63L228.1,75.662Z" transform="translate(117.458 74.692)"/>
                </g>
                <g id="Group_55-2" data-name="Group 55" transform="translate(727.325 0.008)">
                  <path id="Path_43-2" data-name="Path 43" class="cls-3" d="M235.507,9.311A31.208,31.208,0,0,1,225.99,8.2,33.221,33.221,0,0,0,235.507,9.311Z" transform="translate(-116.41 22.167)"/>
                  <path id="Path_44-2" data-name="Path 44" class="cls-3" d="M381.564,8.073,373.491,0,288.982,84.509,204.473,0,196.4,8.073l84.509,84.509L196.4,177.091l8.073,8.073,84.509-84.509,84.509,84.509,8.073-8.073L297.055,92.582Z" transform="translate(-196.4)"/>
                </g>
                <path id="Path_45-2" data-name="Path 45" class="cls-3" d="M313.5,91.99C313.5,32.626,348.755,0,402.86,0c47.328,0,75.843,24.108,80.546,69.955l-50.55,9.406c-3.518-22.331-11.74-33.515-31.737-33.515-25.59,0-34.959,21.146-34.959,46.143,0,29.96,9.7,48.217,34.7,48.217,21.146,0,28.219-11.48,32.922-34.107l49.957,8.221c-5,45.847-34.7,70.844-82.287,70.844-54.957,0-87.879-34.107-87.879-93.175Z" transform="translate(847.479 0.008)"/>
              </g>
            </g>
          </g>
        </g>
        <g id="Repeat_Grid_1" data-name="Repeat Grid 1" class="cls-6" transform="translate(-55.5 1080)">
          <g transform="translate(55.5 -1080)">
            <g id="Group_57" data-name="Group 57" transform="translate(132.643 829.379)">
              <g id="Layer_1-3" data-name="Layer 1" transform="translate(-188.143 250.621)">
                <g id="Group_56-3" data-name="Group 56" transform="translate(0 0)">
                  <path id="Path_31-3" data-name="Path 31" class="cls-3" d="M264.06,57.4c0-37.045,22-57.4,55.763-57.4,29.534,0,47.328,15.044,50.263,43.654l-31.544,5.87c-2.2-13.935-7.326-20.914-19.8-20.914-15.969,0-21.815,13.2-21.815,28.794,0,18.7,6.055,30.089,21.654,30.089,13.2,0,17.609-7.164,20.544-21.284l31.175,5.13c-3.12,28.61-21.654,44.208-51.349,44.208-34.294,0-54.839-21.284-54.839-58.143Z" transform="translate(346.169 0.005)"/>
                  <path id="Path_32-3" data-name="Path 32" class="cls-3" d="M211.873,40.26C172.263,19.091,140.349-29.069,96.88,24.245l91.283,91.282,87.123-87.053c1.086-1.04,3.143-3.166,4.183-4.229-27.454-31.984-45.433,1.017-67.6,16.038Zm-23.687,64.822L107.372,24.268C146.4-15.573,168.935,28.2,204.177,45.136c.508.231,1.04.485,1.548.716a75.71,75.71,0,0,0,7.141,2.773c.462.139.924.3,1.41.439.462.139.948.277,1.433.393a51.724,51.724,0,0,0,15.414,1.779c.578-.023,1.155-.069,1.779-.092a60.73,60.73,0,0,0,11.116-1.872l-55.833,55.809Z" transform="translate(127.005 0.002)"/>
                  <g id="Group_54-3" data-name="Group 54" transform="translate(0 0.005)">
                    <path id="Path_33-3" data-name="Path 33" class="cls-3" d="M32.353,41.443,16.616,65.731H0L27.731,38A47.958,47.958,0,0,0,32.353,41.443Z" transform="translate(0 49.816)"/>
                    <path id="Path_34-3" data-name="Path 34" class="cls-3" d="M22.1,40.69a49.144,49.144,0,0,0,8.6,3.235L25.819,62.2H11.56L22.1,40.69Z" transform="translate(15.155 53.343)"/>
                    <path id="Path_35-3" data-name="Path 35" class="cls-3" d="M32.784,42.986l.9,16.754H21.16l2.45-17.17a49.173,49.173,0,0,0,9.174.416Z" transform="translate(27.74 55.807)"/>
                    <path id="Path_36-3" data-name="Path 36" class="cls-3" d="M37.448,41.42l7.626,19.828H31.647L28.62,43.87A48.025,48.025,0,0,0,37.448,41.42Z" transform="translate(37.519 54.3)"/>
                    <path id="Path_37-3" data-name="Path 37" class="cls-3" d="M42.309,38.22l22.07,27.223h-18L34.66,43.281A46.653,46.653,0,0,0,42.309,38.22Z" transform="translate(45.438 50.105)"/>
                    <path id="Path_38-3" data-name="Path 38" class="cls-3" d="M46.031,29.6a45.5,45.5,0,0,0-5.061-7.626L68.1,0,79.817,11.717,46.031,29.6Z" transform="translate(53.71)"/>
                    <path id="Path_39-3" data-name="Path 39" class="cls-3" d="M44.17,23.6,83.525,8.49,98.477,23.442,46.643,32.478a46.03,46.03,0,0,0-2.45-8.851Z" transform="translate(57.905 11.13)"/>
                    <path id="Path_40-3" data-name="Path 40" class="cls-3" d="M45.491,33.47l58.883,38.2H71.767L39.76,40.657a47.512,47.512,0,0,0,5.731-7.164Z" transform="translate(52.123 43.877)"/>
                    <path id="Path_41-3" data-name="Path 41" class="cls-3" d="M45.723,23.155l62.534-3.3,25,25L45.33,32.306a49.172,49.172,0,0,0,.416-9.174Z" transform="translate(59.425 26.022)"/>
                    <path id="Path_42-3" data-name="Path 42" class="cls-3" d="M180.4,79.326H131.359L43.45,36.227a49.073,49.073,0,0,0,3.212-8.6L158.674,57.6Z" transform="translate(56.961 36.222)"/>
                  </g>
                  <g id="Group_55-3" data-name="Group 55" transform="translate(453.87 0.005)">
                    <path id="Path_43-3" data-name="Path 43" class="cls-3" d="M231.929,8.893A19.475,19.475,0,0,1,225.99,8.2,20.731,20.731,0,0,0,231.929,8.893Z" transform="translate(-157.609 10.75)"/>
                    <path id="Path_44-3" data-name="Path 44" class="cls-3" d="M311.947,5.038,306.91,0,254.174,52.736,201.438,0,196.4,5.038l52.736,52.736L196.4,110.51l5.038,5.038,52.736-52.736,52.736,52.736,5.038-5.038L259.212,57.774Z" transform="translate(-196.4)"/>
                  </g>
                  <path id="Path_45-3" data-name="Path 45" class="cls-3" d="M313.5,57.4c0-37.045,22-57.4,55.763-57.4,29.534,0,47.328,15.044,50.263,43.654l-31.544,5.87c-2.2-13.935-7.326-20.914-19.8-20.914-15.969,0-21.815,13.2-21.815,28.794,0,18.7,6.055,30.089,21.654,30.089,13.2,0,17.609-7.164,20.544-21.284l31.175,5.13c-3.12,28.61-21.654,44.208-51.349,44.208-34.294,0-54.839-21.284-54.839-58.143Z" transform="translate(410.983 0.005)"/>
                </g>
              </g>
            </g>
          </g>
          <g transform="translate(906.5 -1080)">
            <g id="Group_57-2" data-name="Group 57" transform="translate(132.643 829.379)">
              <g id="Layer_1-4" data-name="Layer 1" transform="translate(-188.143 250.621)">
                <g id="Group_56-4" data-name="Group 56" transform="translate(0 0)">
                  <path id="Path_31-4" data-name="Path 31" class="cls-3" d="M264.06,57.4c0-37.045,22-57.4,55.763-57.4,29.534,0,47.328,15.044,50.263,43.654l-31.544,5.87c-2.2-13.935-7.326-20.914-19.8-20.914-15.969,0-21.815,13.2-21.815,28.794,0,18.7,6.055,30.089,21.654,30.089,13.2,0,17.609-7.164,20.544-21.284l31.175,5.13c-3.12,28.61-21.654,44.208-51.349,44.208-34.294,0-54.839-21.284-54.839-58.143Z" transform="translate(346.169 0.005)"/>
                  <path id="Path_32-4" data-name="Path 32" class="cls-3" d="M211.873,40.26C172.263,19.091,140.349-29.069,96.88,24.245l91.283,91.282,87.123-87.053c1.086-1.04,3.143-3.166,4.183-4.229-27.454-31.984-45.433,1.017-67.6,16.038Zm-23.687,64.822L107.372,24.268C146.4-15.573,168.935,28.2,204.177,45.136c.508.231,1.04.485,1.548.716a75.71,75.71,0,0,0,7.141,2.773c.462.139.924.3,1.41.439.462.139.948.277,1.433.393a51.724,51.724,0,0,0,15.414,1.779c.578-.023,1.155-.069,1.779-.092a60.73,60.73,0,0,0,11.116-1.872l-55.833,55.809Z" transform="translate(127.005 0.002)"/>
                  <g id="Group_54-4" data-name="Group 54" transform="translate(0 0.005)">
                    <path id="Path_33-4" data-name="Path 33" class="cls-3" d="M32.353,41.443,16.616,65.731H0L27.731,38A47.958,47.958,0,0,0,32.353,41.443Z" transform="translate(0 49.816)"/>
                    <path id="Path_34-4" data-name="Path 34" class="cls-3" d="M22.1,40.69a49.144,49.144,0,0,0,8.6,3.235L25.819,62.2H11.56L22.1,40.69Z" transform="translate(15.155 53.343)"/>
                    <path id="Path_35-4" data-name="Path 35" class="cls-3" d="M32.784,42.986l.9,16.754H21.16l2.45-17.17a49.173,49.173,0,0,0,9.174.416Z" transform="translate(27.74 55.807)"/>
                    <path id="Path_36-4" data-name="Path 36" class="cls-3" d="M37.448,41.42l7.626,19.828H31.647L28.62,43.87A48.025,48.025,0,0,0,37.448,41.42Z" transform="translate(37.519 54.3)"/>
                    <path id="Path_37-4" data-name="Path 37" class="cls-3" d="M42.309,38.22l22.07,27.223h-18L34.66,43.281A46.653,46.653,0,0,0,42.309,38.22Z" transform="translate(45.438 50.105)"/>
                    <path id="Path_38-4" data-name="Path 38" class="cls-3" d="M46.031,29.6a45.5,45.5,0,0,0-5.061-7.626L68.1,0,79.817,11.717,46.031,29.6Z" transform="translate(53.71)"/>
                    <path id="Path_39-4" data-name="Path 39" class="cls-3" d="M44.17,23.6,83.525,8.49,98.477,23.442,46.643,32.478a46.03,46.03,0,0,0-2.45-8.851Z" transform="translate(57.905 11.13)"/>
                    <path id="Path_40-4" data-name="Path 40" class="cls-3" d="M45.491,33.47l58.883,38.2H71.767L39.76,40.657a47.512,47.512,0,0,0,5.731-7.164Z" transform="translate(52.123 43.877)"/>
                    <path id="Path_41-4" data-name="Path 41" class="cls-3" d="M45.723,23.155l62.534-3.3,25,25L45.33,32.306a49.172,49.172,0,0,0,.416-9.174Z" transform="translate(59.425 26.022)"/>
                    <path id="Path_42-4" data-name="Path 42" class="cls-3" d="M180.4,79.326H131.359L43.45,36.227a49.073,49.073,0,0,0,3.212-8.6L158.674,57.6Z" transform="translate(56.961 36.222)"/>
                  </g>
                  <g id="Group_55-4" data-name="Group 55" transform="translate(453.87 0.005)">
                    <path id="Path_43-4" data-name="Path 43" class="cls-3" d="M231.929,8.893A19.475,19.475,0,0,1,225.99,8.2,20.731,20.731,0,0,0,231.929,8.893Z" transform="translate(-157.609 10.75)"/>
                    <path id="Path_44-4" data-name="Path 44" class="cls-3" d="M311.947,5.038,306.91,0,254.174,52.736,201.438,0,196.4,5.038l52.736,52.736L196.4,110.51l5.038,5.038,52.736-52.736,52.736,52.736,5.038-5.038L259.212,57.774Z" transform="translate(-196.4)"/>
                  </g>
                  <path id="Path_45-4" data-name="Path 45" class="cls-3" d="M313.5,57.4c0-37.045,22-57.4,55.763-57.4,29.534,0,47.328,15.044,50.263,43.654l-31.544,5.87c-2.2-13.935-7.326-20.914-19.8-20.914-15.969,0-21.815,13.2-21.815,28.794,0,18.7,6.055,30.089,21.654,30.089,13.2,0,17.609-7.164,20.544-21.284l31.175,5.13c-3.12,28.61-21.654,44.208-51.349,44.208-34.294,0-54.839-21.284-54.839-58.143Z" transform="translate(410.983 0.005)"/>
                </g>
              </g>
            </g>
          </g>
          <g transform="translate(1757.5 -1080)">
            <g id="Group_57-3" data-name="Group 57" transform="translate(132.643 829.379)">
              <g id="Layer_1-5" data-name="Layer 1" transform="translate(-188.143 250.621)">
                <g id="Group_56-5" data-name="Group 56" transform="translate(0 0)">
                  <path id="Path_31-5" data-name="Path 31" class="cls-3" d="M264.06,57.4c0-37.045,22-57.4,55.763-57.4,29.534,0,47.328,15.044,50.263,43.654l-31.544,5.87c-2.2-13.935-7.326-20.914-19.8-20.914-15.969,0-21.815,13.2-21.815,28.794,0,18.7,6.055,30.089,21.654,30.089,13.2,0,17.609-7.164,20.544-21.284l31.175,5.13c-3.12,28.61-21.654,44.208-51.349,44.208-34.294,0-54.839-21.284-54.839-58.143Z" transform="translate(346.169 0.005)"/>
                  <path id="Path_32-5" data-name="Path 32" class="cls-3" d="M211.873,40.26C172.263,19.091,140.349-29.069,96.88,24.245l91.283,91.282,87.123-87.053c1.086-1.04,3.143-3.166,4.183-4.229-27.454-31.984-45.433,1.017-67.6,16.038Zm-23.687,64.822L107.372,24.268C146.4-15.573,168.935,28.2,204.177,45.136c.508.231,1.04.485,1.548.716a75.71,75.71,0,0,0,7.141,2.773c.462.139.924.3,1.41.439.462.139.948.277,1.433.393a51.724,51.724,0,0,0,15.414,1.779c.578-.023,1.155-.069,1.779-.092a60.73,60.73,0,0,0,11.116-1.872l-55.833,55.809Z" transform="translate(127.005 0.002)"/>
                  <g id="Group_54-5" data-name="Group 54" transform="translate(0 0.005)">
                    <path id="Path_33-5" data-name="Path 33" class="cls-3" d="M32.353,41.443,16.616,65.731H0L27.731,38A47.958,47.958,0,0,0,32.353,41.443Z" transform="translate(0 49.816)"/>
                    <path id="Path_34-5" data-name="Path 34" class="cls-3" d="M22.1,40.69a49.144,49.144,0,0,0,8.6,3.235L25.819,62.2H11.56L22.1,40.69Z" transform="translate(15.155 53.343)"/>
                    <path id="Path_35-5" data-name="Path 35" class="cls-3" d="M32.784,42.986l.9,16.754H21.16l2.45-17.17a49.173,49.173,0,0,0,9.174.416Z" transform="translate(27.74 55.807)"/>
                    <path id="Path_36-5" data-name="Path 36" class="cls-3" d="M37.448,41.42l7.626,19.828H31.647L28.62,43.87A48.025,48.025,0,0,0,37.448,41.42Z" transform="translate(37.519 54.3)"/>
                    <path id="Path_37-5" data-name="Path 37" class="cls-3" d="M42.309,38.22l22.07,27.223h-18L34.66,43.281A46.653,46.653,0,0,0,42.309,38.22Z" transform="translate(45.438 50.105)"/>
                    <path id="Path_38-5" data-name="Path 38" class="cls-3" d="M46.031,29.6a45.5,45.5,0,0,0-5.061-7.626L68.1,0,79.817,11.717,46.031,29.6Z" transform="translate(53.71)"/>
                    <path id="Path_39-5" data-name="Path 39" class="cls-3" d="M44.17,23.6,83.525,8.49,98.477,23.442,46.643,32.478a46.03,46.03,0,0,0-2.45-8.851Z" transform="translate(57.905 11.13)"/>
                    <path id="Path_40-5" data-name="Path 40" class="cls-3" d="M45.491,33.47l58.883,38.2H71.767L39.76,40.657a47.512,47.512,0,0,0,5.731-7.164Z" transform="translate(52.123 43.877)"/>
                    <path id="Path_41-5" data-name="Path 41" class="cls-3" d="M45.723,23.155l62.534-3.3,25,25L45.33,32.306a49.172,49.172,0,0,0,.416-9.174Z" transform="translate(59.425 26.022)"/>
                    <path id="Path_42-5" data-name="Path 42" class="cls-3" d="M180.4,79.326H131.359L43.45,36.227a49.073,49.073,0,0,0,3.212-8.6L158.674,57.6Z" transform="translate(56.961 36.222)"/>
                  </g>
                  <g id="Group_55-5" data-name="Group 55" transform="translate(453.87 0.005)">
                    <path id="Path_43-5" data-name="Path 43" class="cls-3" d="M231.929,8.893A19.475,19.475,0,0,1,225.99,8.2,20.731,20.731,0,0,0,231.929,8.893Z" transform="translate(-157.609 10.75)"/>
                    <path id="Path_44-5" data-name="Path 44" class="cls-3" d="M311.947,5.038,306.91,0,254.174,52.736,201.438,0,196.4,5.038l52.736,52.736L196.4,110.51l5.038,5.038,52.736-52.736,52.736,52.736,5.038-5.038L259.212,57.774Z" transform="translate(-196.4)"/>
                  </g>
                  <path id="Path_45-5" data-name="Path 45" class="cls-3" d="M313.5,57.4c0-37.045,22-57.4,55.763-57.4,29.534,0,47.328,15.044,50.263,43.654l-31.544,5.87c-2.2-13.935-7.326-20.914-19.8-20.914-15.969,0-21.815,13.2-21.815,28.794,0,18.7,6.055,30.089,21.654,30.089,13.2,0,17.609-7.164,20.544-21.284l31.175,5.13c-3.12,28.61-21.654,44.208-51.349,44.208-34.294,0-54.839-21.284-54.839-58.143Z" transform="translate(410.983 0.005)"/>
                </g>
              </g>
            </g>
          </g>
        </g>
      </g>
    </g>
  </g>
</svg>
